<?xml version="1.0" encoding="UTF-8"?>
<svg version="1.1" xmlns="http://www.w3.org/2000/svg" width="920" height="346">
<path d="M0 0 C15.14520365 12.56622438 27.55809513 27.17385003 37.49609375 44.14624023 C38.09623291 45.14772095 38.09623291 45.14772095 38.70849609 46.16943359 C41.26731917 50.74834916 41.26731917 50.74834916 40.61328125 53.64624023 C37.02112729 57.85902812 32.30362204 60.78513231 26.99609375 62.27124023 C19.11783718 59.87350998 15.11673975 50.24689664 11.16796875 43.65795898 C7.61929461 38.00310612 3.74831616 32.49723275 -1.4921875 28.30639648 C-3.87890625 26.39624023 -3.87890625 26.39624023 -5.87890625 23.39624023 C-11.47446762 25.02105251 -16.43097786 27.57582793 -21.56640625 30.27124023 C-22.84741211 30.92286133 -22.84741211 30.92286133 -24.15429688 31.58764648 C-24.97478516 32.0169043 -25.79527344 32.44616211 -26.640625 32.88842773 C-27.75377075 33.46633057 -27.75377075 33.46633057 -28.8894043 34.0559082 C-32.49752618 36.48670819 -34.15449991 39.65469453 -35.7109375 43.62670898 C-36.03143066 44.4255249 -36.35192383 45.22434082 -36.68212891 46.04736328 C-37.01519043 46.88436768 -37.34825195 47.72137207 -37.69140625 48.58374023 C-40.85435674 56.30386515 -44.316112 62.90439199 -49.51171875 69.45483398 C-52.75557251 73.59975824 -55.39545271 76.98156055 -55.87890625 82.39624023 C-53.1612663 89.15323773 -48.34949244 92.59914998 -42.25390625 96.14624023 C-32.85097928 101.7530531 -32.85097928 101.7530531 -30.87890625 105.39624023 C-30.96870188 108.26970035 -31.82108507 109.32844989 -33.69140625 111.52124023 C-37.47623232 114.76537687 -40.89841999 116.08473991 -45.98046875 115.96655273 C-54.98755422 114.19426907 -65.05081357 108.93860149 -70.5546875 101.51342773 C-70.99167969 100.81475586 -71.42867187 100.11608398 -71.87890625 99.39624023 C-72.36746094 98.63569336 -72.85601562 97.87514648 -73.359375 97.09155273 C-77.561313 89.72344856 -79.1835825 82.24611269 -76.953125 73.95483398 C-74.56978722 67.46890856 -71.77905578 61.82409693 -67.29833984 56.52807617 C-62.73175664 50.99076353 -59.93404256 45.57068375 -57.37890625 38.89624023 C-53.94655952 29.93037633 -49.78350819 20.83581831 -40.94140625 16.08374023 C-40.09964844 15.6209668 -39.25789062 15.15819336 -38.390625 14.68139648 C-37.56175781 14.25729492 -36.73289063 13.83319336 -35.87890625 13.39624023 C-35.08097656 12.98245117 -34.28304687 12.56866211 -33.4609375 12.14233398 C-31.6121387 11.20320964 -29.74726558 10.29582065 -27.87890625 9.39624023 C-29.08744165 5.77063404 -30.45258603 5.27697909 -33.74072266 3.59228516 C-34.42569824 3.25946533 -35.11067383 2.92664551 -35.81640625 2.58374023 C-36.52716309 2.23480713 -37.23791992 1.88587402 -37.97021484 1.52636719 C-50.33610428 -4.36555202 -63.40737627 -8.22538688 -76.87890625 -10.60375977 C-77.59949219 -10.73524414 -78.32007813 -10.86672852 -79.0625 -11.00219727 C-85.27738427 -11.95833331 -91.61102288 -11.68975207 -97.87890625 -11.60375977 C-97.8325 -10.28762695 -97.78609375 -8.97149414 -97.73828125 -7.61547852 C-97.27519855 10.88141802 -97.27519855 10.88141802 -101.87890625 19.39624023 C-102.38808594 20.33854492 -102.89726562 21.28084961 -103.421875 22.25170898 C-107.1021549 28.4921836 -111.18319227 32.98334472 -116.87890625 37.39624023 C-117.68714844 38.05366211 -118.49539062 38.71108398 -119.328125 39.38842773 C-126.13583253 44.91382588 -126.13583253 44.91382588 -129.1171875 46.84936523 C-135.26512462 50.87852176 -137.31786079 55.63719242 -139.87890625 62.39624023 C-144.43175956 74.33415662 -149.34323916 83.13657592 -160.87890625 89.39624023 C-164.09273448 90.46751631 -166.27689542 90.46765937 -169.6484375 90.38842773 C-171.35290039 90.36329102 -171.35290039 90.36329102 -173.09179688 90.33764648 C-175.47997926 90.29358886 -177.86802903 90.24158289 -180.25585938 90.18139648 C-188.57511237 89.96504549 -188.57511237 89.96504549 -195.87890625 93.39624023 C-197.03607136 95.71057045 -197.11101061 97.25684835 -197.19140625 99.83374023 C-197.24748047 101.00743164 -197.24748047 101.00743164 -197.3046875 102.20483398 C-197.07431409 104.49565392 -197.07431409 104.49565392 -195.30859375 105.93920898 C-185.89534184 112.0104073 -185.89534184 112.0104073 -175.31640625 114.21655273 C-173.17133035 113.42050501 -173.17133035 113.42050501 -171.08984375 112.38842773 C-160.96232677 107.84357029 -147.84733976 111.07925795 -137.765625 114.43139648 C-129.38131142 117.92980173 -122.90500452 123.4680382 -116.41015625 129.70874023 C-110.40103693 135.47645683 -104.63226565 140.90723643 -97.50390625 145.27124023 C-82.79033971 154.28664373 -82.79033971 154.28664373 -80.81640625 161.02124023 C-82.37553634 165.9737711 -85.59117755 167.74817834 -89.87890625 170.39624023 C-90.86890625 171.05624023 -91.85890625 171.71624023 -92.87890625 172.39624023 C-97.65761854 172.21497873 -100.93470986 169.53256892 -104.62890625 166.77124023 C-105.24942871 166.31539551 -105.86995117 165.85955078 -106.50927734 165.38989258 C-107.74659815 164.47758972 -108.98089784 163.56117309 -110.21191406 162.64038086 C-111.5882851 161.61314202 -112.97799123 160.60379652 -114.37109375 159.59936523 C-118.95551048 156.20723271 -122.86300402 152.41840412 -126.81640625 148.33374023 C-135.52672421 139.43314502 -145.78005111 133.3349644 -158.484375 132.15405273 C-160.85756974 132.11559201 -160.85756974 132.11559201 -163.87890625 132.39624023 C-165.35661399 135.07581693 -166.82430554 137.75965506 -168.2734375 140.45483398 C-169.21293774 142.17610814 -170.17824909 143.88454877 -171.203125 145.55639648 C-174.3779806 150.98150061 -174.02612115 155.31101339 -172.87890625 161.39624023 C-172.21890625 161.39624023 -171.55890625 161.39624023 -170.87890625 161.39624023 C-162.704423 170.15342595 -152.16416938 181.64243502 -151.37890625 194.14624023 C-151.53214541 198.0704952 -151.53214541 198.0704952 -153.94140625 200.33374023 C-159.39525218 202.30640791 -164.02971709 203.68156653 -169.87890625 203.39624023 C-170.53890625 200.09624023 -171.19890625 196.79624023 -171.87890625 193.39624023 C-172.53890625 193.39624023 -173.19890625 193.39624023 -173.87890625 193.39624023 C-175.10546875 191.74389648 -175.10546875 191.74389648 -176.50390625 189.45874023 C-178.73221785 185.98583508 -181.08444051 182.93160819 -183.87890625 179.89624023 C-191.86313305 171.11664985 -196.37021056 163.36879252 -196.13671875 151.24389648 C-195.55158687 144.78084887 -193.61703407 138.73642283 -189.87890625 133.39624023 C-190.69790405 133.13883057 -190.69790405 133.13883057 -191.53344727 132.8762207 C-197.12455333 131.07240705 -202.4669622 128.94321436 -207.81640625 126.52124023 C-208.59983398 126.1704541 -209.38326172 125.81966797 -210.19042969 125.45825195 C-215.11098835 123.2406359 -219.96739004 120.93085808 -224.73828125 118.40405273 C-227.3835513 117.15865187 -230.09444953 116.27931079 -232.87890625 115.39624023 C-231.79295955 133.13684519 -231.79295955 133.13684519 -227.87890625 150.39624023 C-227.65605957 151.12955566 -227.43321289 151.86287109 -227.20361328 152.6184082 C-224.14719443 162.66542573 -220.67413369 172.39111178 -216.19140625 181.89624023 C-215.82321777 182.67878174 -215.4550293 183.46132324 -215.07568359 184.26757812 C-213.05719043 188.4078087 -210.89495604 191.87854766 -207.87890625 195.39624023 C-202.10187922 203.42326726 -202.10187922 203.42326726 -202.87890625 208.39624023 C-210.5682191 209.45683511 -218.12397111 209.49552105 -225.87890625 209.39624023 C-235.18545868 193.49049608 -242.40337231 178.00932579 -247.87890625 160.39624023 C-248.29775674 159.09792747 -248.71698123 157.79973525 -249.13671875 156.50170898 C-256.45187256 132.79519201 -256.98387449 103.22997504 -248.67993164 79.68286133 C-247.84919963 77.31143919 -247.10473425 74.92435732 -246.37109375 72.52124023 C-238.77462224 48.17666114 -225.75921455 24.48012884 -205.73828125 8.09936523 C-203.76189166 6.38909235 -203.76189166 6.38909235 -202.0390625 3.98999023 C-199.54393834 0.99403646 -196.7430648 -1.14879546 -193.56640625 -3.35375977 C-192.95466553 -3.78277588 -192.3429248 -4.21179199 -191.71264648 -4.65380859 C-133.46784375 -44.97257513 -56.06831471 -44.87569357 0 0 Z M-198.56640625 29.27124023 C-199.68551074 30.63411006 -200.78809799 32.01061894 -201.87890625 33.39624023 C-202.6575 34.35014648 -203.43609375 35.30405273 -204.23828125 36.28686523 C-217.59737123 52.8885521 -225.93002625 71.44837204 -229.87890625 92.39624023 C-228.42265175 93.06743572 -226.96382758 93.73305831 -225.50390625 94.39624023 C-224.28574219 94.95311523 -224.28574219 94.95311523 -223.04296875 95.52124023 C-220.95892192 96.52119036 -220.95892192 96.52119036 -218.87890625 96.39624023 C-218.56953125 94.44717773 -218.56953125 94.44717773 -218.25390625 92.45874023 C-216.47201546 84.58872257 -211.92869481 78.17294097 -205.22265625 73.68139648 C-195.19648636 68.18371333 -185.93602756 68.0023711 -174.74975586 68.63110352 C-169.10532554 68.99390979 -169.10532554 68.99390979 -164.3671875 66.33764648 C-162.69732074 63.03735864 -161.36640159 59.75806533 -160.12890625 56.27124023 C-154.0675222 40.2620668 -141.9242555 30.10229785 -128.19140625 20.52124023 C-122.70267996 15.47754581 -118.52464351 8.92984155 -117.87890625 1.39624023 C-117.96352702 -3.31944456 -118.22944475 -6.62956752 -120.87890625 -10.60375977 C-147.65528942 -13.47542984 -181.70946489 10.51937338 -198.56640625 29.27124023 Z " fill="#020202" transform="translate(275.87890625,48.603759765625)"/>
<path d="M0 0 C5.17163665 2.14433715 7.89589968 7.36420419 10.5625 12.0625 C11.5525 13.5475 11.5525 13.5475 12.5625 15.0625 C12.5625 17 12.5625 17 11.5625 19.0625 C6.34027778 23.0625 6.34027778 23.0625 3.5625 23.0625 C3.5625 23.7225 3.5625 24.3825 3.5625 25.0625 C1.3515625 26.62109375 1.3515625 26.62109375 -1.8125 28.5 C-3.01054993 29.21852784 -4.2084588 29.93729092 -5.40625 30.65625 C-6.0559375 31.04296875 -6.705625 31.4296875 -7.375 31.828125 C-10.27329545 33.56271091 -13.15031982 35.33128142 -16.02856445 37.09887695 C-18.3324758 38.51225453 -20.64035877 39.91894214 -22.94921875 41.32421875 C-25.77256625 43.04306644 -28.58745955 44.77424951 -31.39453125 46.51953125 C-53.33300495 60.0625 -53.33300495 60.0625 -59.4375 60.0625 C-59.56705078 61.00996094 -59.56705078 61.00996094 -59.69921875 61.9765625 C-61.08157922 70.77801357 -63.65266885 79.39875556 -67.59375 87.4140625 C-68.82667302 91.28407087 -68.59547176 95.03422001 -68.4375 99.0625 C-34.8346343 98.50588623 -1.81838168 95.73545493 25.5625 74.0625 C26.42617187 73.48371094 27.28984375 72.90492188 28.1796875 72.30859375 C40.85750706 63.80159309 52.66878883 50.96219791 59.75 37.375 C63.71750219 29.82253716 63.71750219 29.82253716 65.5625 27.0625 C66.2225 27.0625 66.8825 27.0625 67.5625 27.0625 C67.93375 25.7321875 67.93375 25.7321875 68.3125 24.375 C69.63685898 20.86544869 70.87365465 18.6745212 73.5625 16.0625 C76.19921875 15.9296875 76.19921875 15.9296875 78.5625 16.0625 C79.77286864 18.06971981 80.95495016 20.0940133 82.125 22.125 C82.78628906 23.25035156 83.44757813 24.37570313 84.12890625 25.53515625 C86.08145379 30.33938084 85.63886178 33.35325754 83.73852539 38.13647461 C82.67387256 40.47260196 81.52019894 42.73451855 80.3125 45 C79.87067383 45.82975342 79.42884766 46.65950684 78.97363281 47.5144043 C74.16337796 56.22695759 68.24920813 63.72352314 61.5625 71.0625 C61.00014648 71.67996094 60.43779297 72.29742187 59.85839844 72.93359375 C49.01768742 84.64725751 36.61377707 94.4445838 22.5625 102.0625 C21.4075 102.69800781 20.2525 103.33351563 19.0625 103.98828125 C4.47121289 111.78089318 -11.13091605 116.45419716 -27.4375 119.0625 C-28.57316406 119.24683594 -29.70882812 119.43117188 -30.87890625 119.62109375 C-71.30635047 124.43907279 -110.04925404 115.0704892 -143.4375 92.0625 C-144.02378174 91.58224365 -144.61006348 91.1019873 -145.21411133 90.60717773 C-150.01837553 86.70262499 -153.91243811 86.36450119 -160 86.375 C-161.78918134 86.32575797 -163.57825295 86.2723574 -165.3671875 86.21484375 C-166.66994629 86.17979736 -166.66994629 86.17979736 -167.99902344 86.14404297 C-183.71635425 85.61845341 -199.78982887 80.64348216 -211.1328125 69.37890625 C-217.68349933 62.27441739 -219.75005675 54.43337263 -219.6640625 44.90234375 C-219.21703881 39.299133 -218.52351961 32.14851961 -214.4375 28.0625 C-213.4475 28.0625 -212.4575 28.0625 -211.4375 28.0625 C-211.07398438 29.79886719 -211.07398438 29.79886719 -210.703125 31.5703125 C-210.36524986 33.10952146 -210.02667075 34.64857601 -209.6875 36.1875 C-209.53023437 36.94804687 -209.37296875 37.70859375 -209.2109375 38.4921875 C-207.50746156 46.09231091 -204.20237322 51.14350147 -197.80859375 55.61328125 C-177.00564335 68.32809937 -149.5552006 65.05161397 -126.8515625 59.80078125 C-103.98470726 54.25623102 -83.43305044 46.72133345 -62.4375 36.0625 C-61.35887695 35.51770996 -60.28025391 34.97291992 -59.16894531 34.41162109 C-56.00251113 32.80655342 -52.84312195 31.18871163 -49.6875 29.5625 C-48.25011475 28.82447144 -48.25011475 28.82447144 -46.78369141 28.0715332 C-42.27538303 25.71323473 -38.36881915 23.31264999 -34.4375 20.0625 C-31.77619815 18.37666987 -29.04526665 16.81656767 -26.3125 15.25 C-14.96800248 8.82197466 -14.96800248 8.82197466 -4.296875 1.375 C-2.4375 0.0625 -2.4375 0.0625 0 0 Z M-92.9375 73.26953125 C-94.26164917 73.65310791 -94.26164917 73.65310791 -95.61254883 74.04443359 C-96.54478271 74.31852051 -97.4770166 74.59260742 -98.4375 74.875 C-100.33710024 75.42626163 -102.23683871 75.9770472 -104.13671875 76.52734375 C-105.50642822 76.92542236 -105.50642822 76.92542236 -106.90380859 77.33154297 C-111.40044831 78.62880056 -115.91595948 79.85534398 -120.4375 81.0625 C-112.3842642 87.36661671 -102.256432 91.38112715 -92.4375 94.0625 C-91.4475 93.7325 -90.4575 93.4025 -89.4375 93.0625 C-89.31632812 92.216875 -89.19515625 91.37125 -89.0703125 90.5 C-88.14666305 84.24760375 -87.11085583 78.15829623 -85.4375 72.0625 C-88.30904652 72.0625 -90.2085926 72.47129261 -92.9375 73.26953125 Z " fill="#030303" transform="translate(229.4375,203.9375)"/>
<path d="M0 0 C2.125 1.5625 2.125 1.5625 3.125 2.5625 C3.91015839 9.16555331 3.32047817 15.18835907 -0.875 20.5625 C-1.865 20.8925 -2.855 21.2225 -3.875 21.5625 C-4.56677514 23.21890254 -5.23019572 24.88725385 -5.875 26.5625 C-7.52319336 28.64306641 -7.52319336 28.64306641 -9.46484375 30.6640625 C-10.16673828 31.40140625 -10.86863281 32.13875 -11.59179688 32.8984375 C-12.32462891 33.65382812 -13.05746094 34.40921875 -13.8125 35.1875 C-14.54146484 35.950625 -15.27042969 36.71375 -16.02148438 37.5 C-21.18463591 42.89504376 -21.18463591 42.89504376 -23.54516602 45.17724609 C-25.97260911 47.70585122 -25.8732967 48.68985455 -25.82421875 52.359375 C-25.74410137 54.0107776 -25.65629764 55.66181792 -25.5625 57.3125 C-25.51544922 58.1883374 -25.46839844 59.0641748 -25.41992188 59.96655273 C-25.02517252 66.86309193 -24.48610562 73.74448811 -23.875 80.625 C-23.79209717 81.57020508 -23.70919434 82.51541016 -23.6237793 83.48925781 C-23.54168213 84.3706543 -23.45958496 85.25205078 -23.375 86.16015625 C-23.26671875 87.32816772 -23.26671875 87.32816772 -23.15625 88.51977539 C-22.91178917 90.75859052 -22.91178917 90.75859052 -21.875 93.5625 C-21.67521117 96.20542086 -21.55242957 98.79219006 -21.5 101.4375 C-21.44392578 102.49904297 -21.44392578 102.49904297 -21.38671875 103.58203125 C-21.31906746 107.61855826 -21.66643956 109.31080084 -24.2734375 112.45703125 C-25.13195312 113.15183594 -25.99046875 113.84664063 -26.875 114.5625 C-27.535 115.160625 -28.195 115.75875 -28.875 116.375 C-31.36115928 117.85115707 -33.030343 117.65139553 -35.875 117.5625 C-36.2771875 116.57636719 -36.2771875 116.57636719 -36.6875 115.5703125 C-38.96811852 110.03381096 -41.32069426 104.54554901 -43.78515625 99.08886719 C-47.86866119 90.04072078 -51.51561111 80.90261911 -54.875 71.5625 C-62.36090868 75.18323542 -68.74208061 79.56590149 -75.10205078 84.86645508 C-78.00872049 87.25624489 -80.18530853 88.83472367 -83.875 89.5625 C-83.89481934 90.32916992 -83.91463867 91.09583984 -83.93505859 91.88574219 C-84.03035446 95.36167219 -84.14001598 98.83700506 -84.25 102.3125 C-84.2809375 103.5190625 -84.311875 104.725625 -84.34375 105.96875 C-84.38242187 107.12890625 -84.42109375 108.2890625 -84.4609375 109.484375 C-84.4923584 110.55268555 -84.5237793 111.62099609 -84.55615234 112.72167969 C-84.95002973 116.23098842 -85.69306928 118.57110723 -88.42578125 120.86328125 C-91.20723035 122.46061011 -93.34885088 123.50131987 -96.5625 123.875 C-103.41221481 119.98732403 -104.87374626 107.30928487 -106.921875 100.16015625 C-107.875 96.5625 -107.875 96.5625 -107.875 94.5625 C-108.69871094 94.31371094 -109.52242187 94.06492187 -110.37109375 93.80859375 C-114.40831661 92.37283668 -118.12423854 90.56545518 -121.9375 88.625 C-122.63166016 88.27759766 -123.32582031 87.93019531 -124.04101562 87.57226562 C-127.74518153 85.7043529 -131.3489024 83.75514159 -134.875 81.5625 C-134.1325151 76.96519623 -131.72189829 74.876 -128.234375 71.98828125 C-123.24303376 68.9719906 -118.12212671 70.03488996 -112.6640625 71.31640625 C-106.36764485 72.87496898 -106.36764485 72.87496898 -100.328125 71.265625 C-95.53287565 67.13178935 -91.77993635 62.04352597 -87.9375 57.0390625 C-84.65222051 53.09423826 -80.81896835 49.83088118 -76.875 46.5625 C-80.82197543 42.33029393 -85.10923554 39.13651823 -89.875 35.875 C-99.53449539 29.16264594 -108.86543562 22.13053408 -117.875 14.5625 C-117.52275674 11.72568377 -116.96580253 10.65276204 -114.90625 8.60546875 C-114.0709375 7.99316406 -113.235625 7.38085938 -112.375 6.75 C-111.5603125 6.12480469 -110.745625 5.49960938 -109.90625 4.85546875 C-102.85834615 1.8492108 -95.2807604 5.18518237 -88.4375 7.625 C-86.60628539 8.25368581 -84.77420899 8.87986546 -82.94140625 9.50390625 C-81.97090332 9.83535645 -81.00040039 10.16680664 -80.00048828 10.50830078 C-74.31294042 12.42665976 -68.59938496 14.25747765 -62.875 16.0625 C-61.75939697 16.42480713 -60.64379395 16.78711426 -59.49438477 17.16040039 C-58.44436279 17.48903076 -57.39434082 17.81766113 -56.3125 18.15625 C-55.38308594 18.45208984 -54.45367187 18.74792969 -53.49609375 19.05273438 C-48.78752117 19.96848508 -45.46971591 18.5834381 -41.5 16.125 C-40.20255859 15.32642578 -40.20255859 15.32642578 -38.87890625 14.51171875 C-36.65040758 13.06565784 -34.45934081 11.59521254 -32.27734375 10.08203125 C-10.26483188 -5.13241594 -10.26483188 -5.13241594 0 0 Z " fill="#020202" transform="translate(357.875,105.4375)"/>
<path d="M0 0 C1.39296547 -0.01441132 1.39296547 -0.01441132 2.81407166 -0.02911377 C4.33418602 -0.03548859 4.33418602 -0.03548859 5.88500977 -0.04199219 C6.92528824 -0.04769226 7.96556671 -0.05339233 9.03736877 -0.05926514 C11.24918597 -0.06873754 13.46101742 -0.07525796 15.67285156 -0.07910156 C19.03093905 -0.0887367 22.38839609 -0.11970949 25.74633789 -0.15136719 C27.89672489 -0.15790414 30.04711626 -0.16315189 32.19750977 -0.16699219 C33.19270126 -0.17933899 34.18789276 -0.19168579 35.21324158 -0.20440674 C45.42612121 -0.17238016 54.07788723 1.9523381 61.67407227 9.06738281 C67.48909351 15.06181488 70.54199074 20.62148037 70.68969727 29.06347656 C70.21620864 36.90234373 67.72262171 41.18394787 62.45141602 46.97363281 C61.73598633 47.76382813 61.02055664 48.55402344 60.28344727 49.36816406 C59.74075195 49.95984375 59.19805664 50.55152344 58.63891602 51.16113281 C59.38657227 51.65742187 60.13422852 52.15371094 60.90454102 52.66503906 C67.94606453 57.52221562 72.99352528 61.42560379 74.63891602 70.16113281 C74.78511989 72.75906323 74.86959841 75.31291503 74.88891602 77.91113281 C74.90954102 78.58917969 74.93016602 79.26722656 74.95141602 79.96582031 C75.00324815 86.78174628 73.56507201 92.46316579 68.74829102 97.46191406 C67.64195632 98.48063123 66.52185106 99.48458311 65.38891602 100.47363281 C64.84106445 100.98474609 64.29321289 101.49585938 63.72875977 102.02246094 C51.58203792 112.96019993 34.67704962 111.46572479 19.34155273 111.36694336 C16.35334954 111.34841225 13.36545256 111.34643607 10.37719727 111.34667969 C8.48005915 111.34177326 6.58292312 111.33594881 4.68579102 111.32910156 C3.7911615 111.32798874 2.89653198 111.32687592 1.97479248 111.32572937 C-4.24494647 111.27727033 -4.24494647 111.27727033 -5.36108398 110.16113281 C-5.45874795 108.74667289 -5.48740075 107.32737335 -5.48806763 105.9095459 C-5.49088745 104.9924736 -5.49370728 104.07540131 -5.49661255 103.13053894 C-5.49458832 102.11647476 -5.49256409 101.10241058 -5.49047852 100.05761719 C-5.49223083 98.99593826 -5.49398315 97.93425934 -5.49578857 96.84040833 C-5.50020947 93.31188346 -5.49726826 89.78340824 -5.49389648 86.25488281 C-5.49456946 83.81490062 -5.49553942 81.37491849 -5.49679565 78.93493652 C-5.49827295 73.81355147 -5.49611705 68.69218382 -5.49145508 63.57080078 C-5.48575778 56.98950566 -5.48903662 50.40825132 -5.49502754 43.8269577 C-5.4986323 38.78627207 -5.49749496 33.74559619 -5.49489975 28.70491028 C-5.49423024 26.2774912 -5.49505972 23.85007126 -5.4973793 21.4226532 C-5.49990443 18.03662759 -5.4960672 14.65066902 -5.49047852 11.26464844 C-5.49250275 10.25058426 -5.49452698 9.23652008 -5.49661255 8.19172668 C-5.49379272 7.27465439 -5.4909729 6.35758209 -5.48806763 5.41271973 C-5.4876906 4.61113686 -5.48731358 3.80955399 -5.48692513 2.98368073 C-5.23831933 -0.61685865 -3.1008403 0.02580972 0 0 Z M17.63891602 21.16113281 C17.63891602 28.09113281 17.63891602 35.02113281 17.63891602 42.16113281 C31.30574838 43.17852946 31.30574838 43.17852946 43.63891602 38.53613281 C45.56629474 33.95860834 45.25132127 29.81822938 43.57641602 25.28613281 C40.58290355 22.0029256 36.7820389 21.316372 32.47509766 21.00439453 C30.21272251 20.96540933 27.96367486 20.98613081 25.70141602 21.03613281 C23.04079102 21.07738281 20.38016602 21.11863281 17.63891602 21.16113281 Z M17.63891602 63.16113281 C17.63891602 71.74113281 17.63891602 80.32113281 17.63891602 89.16113281 C22.34141602 89.25394531 22.34141602 89.25394531 27.13891602 89.34863281 C28.11022461 89.37594482 29.0815332 89.40325684 30.08227539 89.43139648 C36.35088122 89.49069066 42.31244654 89.00420633 47.29711914 84.74389648 C49.96300799 81.59925358 49.92293082 78.13993975 49.84985352 74.15722656 C49.52973234 71.12793171 48.61306302 69.46430432 46.63891602 67.16113281 C40.00117661 63.12076969 33.85743426 63.02195878 26.32641602 63.09863281 C23.45954102 63.11925781 20.59266602 63.13988281 17.63891602 63.16113281 Z " fill="#010101" transform="translate(403.361083984375,46.8388671875)"/>
<path d="M0 0 C1.4228833 -0.01429802 1.4228833 -0.01429802 2.87451172 -0.02888489 C3.90463379 -0.02797348 4.93475586 -0.02706207 5.99609375 -0.02612305 C7.58768311 -0.03255074 7.58768311 -0.03255074 9.21142578 -0.03910828 C11.46434821 -0.04486248 13.71728922 -0.04534386 15.97021484 -0.04101562 C19.39193273 -0.03787997 22.81276566 -0.06121667 26.234375 -0.08666992 C28.42578017 -0.08894545 30.61718764 -0.08964523 32.80859375 -0.08862305 C34.32948608 -0.10243767 34.32948608 -0.10243767 35.88110352 -0.11653137 C45.08872737 -0.05763633 53.0101678 1.57761038 60.43359375 7.2746582 C61.25859375 7.8109082 62.08359375 8.3471582 62.93359375 8.8996582 C70.4620372 16.05167948 73.35821468 24.85656959 73.765625 34.98120117 C73.98023806 45.49968009 71.83244336 54.18410164 65.16015625 62.48168945 C62.23140202 65.52308807 58.90639935 67.89919435 55.43359375 70.2746582 C59.58676601 77.80646727 63.85514023 85.26930829 68.1484375 92.72192383 C75.43359375 105.42022782 75.43359375 105.42022782 75.43359375 110.2746582 C71.22672891 110.56599233 67.02245114 110.74292599 62.80859375 110.8996582 C61.61878906 110.98344727 60.42898438 111.06723633 59.203125 111.15356445 C55.69894099 111.25144669 52.81944334 111.19745261 49.43359375 110.2746582 C46.4907156 107.34615659 45.08031436 104.04292488 43.43359375 100.2746582 C42.59877137 98.91340814 41.73954946 97.56668292 40.8515625 96.23950195 C39.07948539 93.43059376 37.55759109 90.57965029 36.109375 87.59106445 C35.71943359 86.80924805 35.32949219 86.02743164 34.92773438 85.22192383 C34.13283702 83.61767645 33.36488455 81.99982391 32.62304688 80.37036133 C31.33009976 77.66021242 31.33009976 77.66021242 28.43359375 74.2746582 C25.13359375 73.9446582 21.83359375 73.6146582 18.43359375 73.2746582 C18.43359375 85.4846582 18.43359375 97.6946582 18.43359375 110.2746582 C14.66320318 112.15985349 10.0820478 111.45941814 5.93359375 111.4621582 C4.95777344 111.4744043 3.98195313 111.48665039 2.9765625 111.49926758 C1.57857422 111.50216797 1.57857422 111.50216797 0.15234375 111.50512695 C-0.70423828 111.50923584 -1.56082031 111.51334473 -2.44335938 111.51757812 C-4.56640625 111.2746582 -4.56640625 111.2746582 -6.56640625 109.2746582 C-6.81808853 107.36309052 -6.81808853 107.36309052 -6.82037354 104.98547363 C-6.82601318 104.08530014 -6.83165283 103.18512665 -6.83746338 102.25767517 C-6.83341492 101.26747879 -6.82936646 100.27728241 -6.82519531 99.25708008 C-6.82869995 98.21636856 -6.83220459 97.17565704 -6.83581543 96.10340881 C-6.84464583 92.65000819 -6.83877892 89.19681105 -6.83203125 85.7434082 C-6.83337752 83.35209107 -6.83531773 80.9607742 -6.83782959 78.56945801 C-6.84078263 73.5523824 -6.8364774 68.5353779 -6.82714844 63.51831055 C-6.81575386 57.07498261 -6.82231237 50.63182127 -6.83429337 44.18849945 C-6.84150709 39.24899023 -6.83922628 34.30952076 -6.83403778 29.37001038 C-6.83269993 26.99365723 -6.83435369 24.61730052 -6.83899689 22.24095154 C-6.84405407 18.92461535 -6.83636314 15.6085521 -6.82519531 12.29223633 C-6.82924377 11.30203995 -6.83329224 10.31184357 -6.83746338 9.29164124 C-6.83182373 8.39146774 -6.82618408 7.49129425 -6.82037354 6.56384277 C-6.81961948 5.7792292 -6.81886543 4.99461563 -6.81808853 4.18622589 C-6.26404701 -0.02180917 -3.58364487 0.01975322 0 0 Z M17.43359375 21.2746582 C17.43359375 31.1746582 17.43359375 41.0746582 17.43359375 51.2746582 C22.13609375 51.3674707 22.13609375 51.3674707 26.93359375 51.4621582 C27.90490234 51.48947021 28.87621094 51.51678223 29.87695312 51.54492188 C35.74909266 51.60046591 40.18108595 51.00146687 45.43359375 48.2746582 C48.61046256 43.30399012 47.92680231 36.96196941 47.43359375 31.2746582 C46.21896686 27.63077755 45.22133198 25.96691301 42.37109375 23.4621582 C34.55728267 20.30338351 25.66395212 21.2746582 17.43359375 21.2746582 Z " fill="#010101" transform="translate(834.56640625,46.725341796875)"/>
<path d="M0 0 C6.13396041 -0.12502585 12.26715452 -0.21500296 18.40209961 -0.2746582 C20.48230942 -0.29956608 22.56243392 -0.33350535 24.64233398 -0.37719727 C39.29711455 -0.67699422 53.18821843 -0.81286829 65.1875 8.8125 C68.83195734 12.45010685 71.23119428 16.17931704 73 21 C73.34675781 21.94230469 73.69351563 22.88460937 74.05078125 23.85546875 C77.59952339 35.61158982 76.32860644 47.92599748 70.5625 58.703125 C67.28286332 63.52419092 62.80013739 66.79990841 58 70 C58.32871094 70.53625 58.65742187 71.0725 58.99609375 71.625 C62.32604783 77.11175361 65.53678142 82.65903795 68.6875 88.25 C69.06769287 88.92289062 69.44788574 89.59578125 69.83959961 90.2890625 C76 101.26257219 76 101.26257219 76 104 C76.66 104 77.32 104 78 104 C78.38218767 105.65614657 78.71395102 107.32457024 79 109 C78 110 78 110 75.49975586 110.11352539 C74.41573486 110.10828857 73.33171387 110.10305176 72.21484375 110.09765625 C70.46010742 110.09282227 70.46010742 110.09282227 68.66992188 110.08789062 C67.43822266 110.07951172 66.20652344 110.07113281 64.9375 110.0625 C63.08415039 110.05573242 63.08415039 110.05573242 61.19335938 110.04882812 C58.12885883 110.03699608 55.06445279 110.02051173 52 110 C51.64284912 109.33057373 51.28569824 108.66114746 50.91772461 107.97143555 C49.26210563 104.87438513 47.59984098 101.78094723 45.9375 98.6875 C45.37611328 97.63498047 44.81472656 96.58246094 44.23632812 95.49804688 C40.84169974 89.19373701 37.25168931 83.1197022 33.28735352 77.15551758 C32 75 32 75 32 73 C29.03 73 26.06 73 23 73 C23.00785522 74.62796509 23.00785522 74.62796509 23.01586914 76.28881836 C23.03391836 80.30117982 23.04543171 84.31353767 23.05493164 88.32592773 C23.05997204 90.06519168 23.0668043 91.80445136 23.07543945 93.54370117 C23.08751792 96.03825937 23.09323108 98.53276173 23.09765625 101.02734375 C23.10281754 101.80963852 23.10797882 102.59193329 23.11329651 103.39793396 C23.11349226 105.26567114 23.06199694 107.13329204 23 109 C21.28432208 110.71567792 19.02627265 110.13015825 16.6875 110.1328125 C15.61242187 110.13410156 14.53734375 110.13539063 13.4296875 110.13671875 C12.29789062 110.13285156 11.16609375 110.12898438 10 110.125 C8.86820312 110.12886719 7.73640625 110.13273437 6.5703125 110.13671875 C5.49523437 110.13542969 4.42015625 110.13414062 3.3125 110.1328125 C2.31863281 110.13168457 1.32476562 110.13055664 0.30078125 110.12939453 C-2 110 -2 110 -3 109 C-3.0953919 107.62123975 -3.12188622 106.23763084 -3.12025452 104.85557556 C-3.12162918 103.96230057 -3.12300385 103.06902557 -3.12442017 102.14868164 C-3.12082489 101.16109863 -3.11722961 100.17351562 -3.11352539 99.15600586 C-3.11367142 98.12198135 -3.11381744 97.08795685 -3.1139679 96.02259827 C-3.11326827 92.58665914 -3.10547358 89.15077347 -3.09765625 85.71484375 C-3.09579225 83.33972707 -3.09436826 80.96461 -3.09336853 78.5894928 C-3.08954197 72.32423856 -3.0797105 66.05900733 -3.06866455 59.79376221 C-3.0584534 53.4061311 -3.05387155 47.01849629 -3.04882812 40.63085938 C-3.03808836 28.08722974 -3.02120127 15.54361609 -3 3 C-2.01 2.67 -1.02 2.34 0 2 C0 1.34 0 0.68 0 0 Z M22 23 C22 32.24 22 41.48 22 51 C26.4859375 51.0928125 26.4859375 51.0928125 31.0625 51.1875 C31.99070557 51.21481201 32.91891113 51.24212402 33.87524414 51.27026367 C39.34100517 51.32457672 43.26559773 50.83817873 48 48 C50.94678644 43.12116074 50.48599756 37.51607232 50 32 C49.0795068 28.56349206 48.40514358 26.87654195 45.359375 24.9765625 C37.99364966 21.91219585 29.79391457 22.80351476 22 23 Z " fill="#020202" transform="translate(490,188)"/>
<path d="M0 0 C0.969375 -0.00386719 1.93875 -0.00773438 2.9375 -0.01171875 C3.948125 -0.00011719 4.95875 0.01148438 6 0.0234375 C7.010625 0.01183594 8.02125 0.00023437 9.0625 -0.01171875 C10.031875 -0.00785156 11.00125 -0.00398437 12 0 C12.886875 0.00338379 13.77375 0.00676758 14.6875 0.01025391 C17.49517571 0.48155927 18.31643031 1.13482519 20 3.3984375 C20.82788086 5.24853516 20.82788086 5.24853516 21.46484375 7.3125 C21.70783203 8.07433594 21.95082031 8.83617187 22.20117188 9.62109375 C22.44416016 10.41386719 22.68714844 11.20664063 22.9375 12.0234375 C24.35737002 16.59304614 25.78001122 21.04564835 27.83203125 25.375 C30.82701476 31.91998892 32.81085409 38.83902538 34.97360229 45.69155884 C38.53557823 56.96328544 42.11397442 68.20337741 46.4375 79.2109375 C55 101.02523732 55 101.02523732 55 110.3984375 C46.75 110.3984375 38.5 110.3984375 30 110.3984375 C27.625 103.0859375 27.625 103.0859375 26.88916016 100.7956543 C25.85558205 97.65581388 24.84457252 95.16529627 23 92.3984375 C23 91.4084375 23 90.4184375 23 89.3984375 C10.79 89.3984375 -1.42 89.3984375 -14 89.3984375 C-14.66 92.3684375 -15.32 95.3384375 -16 98.3984375 C-16.65002664 100.57663998 -17.33286387 102.74559477 -18.0625 104.8984375 C-18.40410156 105.919375 -18.74570312 106.9403125 -19.09765625 107.9921875 C-20 110.3984375 -20 110.3984375 -21 111.3984375 C-22.69558726 111.49775903 -24.39525747 111.52923757 -26.09375 111.53125 C-27.12371094 111.53253906 -28.15367187 111.53382813 -29.21484375 111.53515625 C-30.84099609 111.52935547 -30.84099609 111.52935547 -32.5 111.5234375 C-33.58410156 111.52730469 -34.66820312 111.53117187 -35.78515625 111.53515625 C-36.81511719 111.53386719 -37.84507812 111.53257812 -38.90625 111.53125 C-39.85822266 111.53012207 -40.81019531 111.52899414 -41.79101562 111.52783203 C-44 111.3984375 -44 111.3984375 -45 110.3984375 C-44.65187137 102.82205913 -41.98340342 96.14651729 -39.375 89.0859375 C-38.91380179 87.81806191 -38.45336101 86.54991057 -37.99365234 85.28149414 C-36.08800442 80.03536196 -34.15341167 74.80000391 -32.203125 69.5703125 C-31.67703277 68.15887301 -31.15098991 66.74741512 -30.625 65.3359375 C-30.36122559 64.63057861 -30.09745117 63.92521973 -29.82568359 63.19848633 C-27.84590476 57.84488659 -25.98354499 52.45522162 -24.1484375 47.05078125 C-23.89123932 46.2945195 -23.63404114 45.53825775 -23.36904907 44.75907898 C-22.08002377 40.96562535 -20.79767198 37.17011469 -19.52587891 33.37084961 C-16.98570315 25.83244992 -14.29227069 18.37690581 -11.3125 11 C-11.02705322 10.28145844 -10.74160645 9.56291687 -10.44750977 8.82260132 C-7.97992444 2.83787643 -6.69566128 0.02554667 0 0 Z M5 33.3984375 C2.40667553 40.14762578 0.09128455 46.97485923 -2.1875 53.8359375 C-2.55552734 54.93615234 -2.92355469 56.03636719 -3.30273438 57.16992188 C-3.65013672 58.21341797 -3.99753906 59.25691406 -4.35546875 60.33203125 C-4.67153076 61.28134521 -4.98759277 62.23065918 -5.31323242 63.20874023 C-6.04987704 65.17498782 -6.04987704 65.17498782 -6 66.3984375 C1.26 66.3984375 8.52 66.3984375 16 66.3984375 C14.50076898 58.90228239 12.81286769 52.05034279 10.5 44.8359375 C10.19191406 43.84013672 9.88382813 42.84433594 9.56640625 41.81835938 C9.26605469 40.87412109 8.96570313 39.92988281 8.65625 38.95703125 C8.38619141 38.10423584 8.11613281 37.25144043 7.83789062 36.37280273 C7.17413758 34.21523865 7.17413758 34.21523865 5 33.3984375 Z " fill="#020202" transform="translate(618,187.6015625)"/>
<path d="M0 0 C1.75539345 0.00333092 1.75539345 0.00333092 3.54624939 0.00672913 C4.51207191 0.00651009 4.51207191 0.00651009 5.49740601 0.00628662 C7.63473327 0.00698567 9.77197438 0.01477761 11.9092865 0.02259827 C13.3875931 0.02446248 14.86590032 0.02588637 16.34420776 0.02688599 C20.24211827 0.03071093 24.13999174 0.040541 28.03788757 0.05158997 C32.01259358 0.0618046 35.98730554 0.06638372 39.96202087 0.07142639 C47.76607425 0.0821633 55.57009707 0.09923942 63.37413025 0.12025452 C64.60129048 3.80173521 64.55819838 7.22436214 64.56163025 11.05775452 C64.57387634 11.77382874 64.58612244 12.48990295 64.59873962 13.22767639 C64.61017572 17.34085999 64.26272241 19.34307019 62.37413025 23.12025452 C48.84413025 23.12025452 35.31413025 23.12025452 21.37413025 23.12025452 C21.37413025 29.72025452 21.37413025 36.32025452 21.37413025 43.12025452 C23.96127869 43.10865295 26.54842712 43.09705139 29.213974 43.08509827 C31.70933408 43.0773079 34.20469282 43.07123102 36.70005798 43.06532288 C38.43932193 43.06028247 40.17858161 43.05345021 41.91783142 43.04481506 C44.41238962 43.0327366 46.90689198 43.02702343 49.401474 43.02259827 C50.18376877 43.01743698 50.96606354 43.0122757 51.77206421 43.00695801 C53.63980139 43.00676226 55.50742229 43.05825757 57.37413025 43.12025452 C59.7434959 45.48962016 58.60746062 51.37593876 58.62413025 54.55775452 C58.64475525 55.53808655 58.66538025 56.51841858 58.68663025 57.52845764 C58.69436462 58.9332135 58.69436462 58.9332135 58.70225525 60.36634827 C58.7162738 61.66076843 58.7162738 61.66076843 58.73057556 62.9813385 C58.61294861 63.68718079 58.49532166 64.39302307 58.37413025 65.12025452 C55.00312265 67.36759292 53.87068973 67.36734601 49.92881775 67.35072327 C48.8511615 67.34878967 47.77350525 67.34685608 46.66319275 67.34486389 C45.53655212 67.3326178 44.4099115 67.3203717 43.24913025 67.30775452 C42.14569275 67.30710999 41.04225525 67.30646545 39.90538025 67.30580139 C33.58547703 67.27202519 27.71583196 66.82488804 21.37413025 66.12025452 C21.37413025 73.38025452 21.37413025 80.64025452 21.37413025 88.12025452 C24.46659119 88.10865295 27.55905212 88.09705139 30.745224 88.08509827 C33.72707517 88.0773085 36.70892522 88.07123128 39.69078064 88.06532288 C41.76956181 88.06028163 43.84833941 88.05344877 45.92710876 88.04481506 C48.90815611 88.03274029 51.88915674 88.02702428 54.870224 88.02259827 C56.27334084 88.01485634 56.27334084 88.01485634 57.70480347 88.00695801 C58.56562027 88.00688248 59.42643707 88.00680695 60.31333923 88.00672913 C61.075009 88.00450851 61.83667877 88.0022879 62.62142944 88 C64.37413025 88.12025452 64.37413025 88.12025452 65.37413025 89.12025452 C65.46098628 90.68198197 65.48115244 92.24754796 65.4717865 93.81166077 C65.46695251 95.22801819 65.46695251 95.22801819 65.46202087 96.67298889 C65.44945251 98.16282288 65.44945251 98.16282288 65.43663025 99.68275452 C65.43211853 100.67984436 65.42760681 101.6769342 65.42295837 102.70423889 C65.41113032 105.176303 65.39464874 107.6482497 65.37413025 110.12025452 C62.56770363 111.52346783 60.24346109 111.24750536 57.10435486 111.24964905 C55.12736855 111.25437729 55.12736855 111.25437729 53.11044312 111.25920105 C51.6657864 111.2574114 50.22113 111.25536048 48.776474 111.25306702 C47.30199162 111.25374029 45.82750934 111.25471051 44.35302734 111.25596619 C41.26198775 111.2574416 38.17097704 111.25529332 35.0799408 111.25062561 C31.10948105 111.24492341 27.13908883 111.24821141 23.16863155 111.25419807 C20.12413012 111.25780366 17.07964481 111.2566652 14.0351429 111.25407028 C12.57064875 111.25340126 11.10615315 111.25422856 9.64166069 111.25654984 C7.59927776 111.25907682 5.55688973 111.25454539 3.51451111 111.24964905 C2.35028122 111.24885345 1.18605133 111.24805786 -0.01345825 111.24723816 C-2.62586975 111.12025452 -2.62586975 111.12025452 -3.62586975 110.12025452 C-3.72353371 108.70579459 -3.75218652 107.28649505 -3.75285339 105.8686676 C-3.75567322 104.95159531 -3.75849304 104.03452301 -3.76139832 103.08966064 C-3.75937408 102.07559647 -3.75734985 101.06153229 -3.75526428 100.01673889 C-3.7570166 98.95505997 -3.75876892 97.89338104 -3.76057434 96.79953003 C-3.76499523 93.27100516 -3.76205403 89.74252994 -3.75868225 86.21400452 C-3.75935522 83.77402232 -3.76032519 81.33404019 -3.76158142 78.89405823 C-3.76305872 73.77267317 -3.76090282 68.65130552 -3.75624084 63.52992249 C-3.75054355 56.94862737 -3.75382238 50.36737303 -3.75981331 43.78607941 C-3.76341807 38.74539378 -3.76228073 33.7047179 -3.75968552 28.66403198 C-3.75901601 26.23661291 -3.75984549 23.80919296 -3.76216507 21.3817749 C-3.7646902 17.99574929 -3.76085297 14.60979073 -3.75526428 11.22377014 C-3.75728851 10.20970596 -3.75931274 9.19564178 -3.76139832 8.15084839 C-3.75857849 7.23377609 -3.75575867 6.3167038 -3.75285339 5.37184143 C-3.75247637 4.57025856 -3.75209934 3.76867569 -3.75171089 2.94280243 C-3.54772956 -0.01144412 -2.97436072 0.13621403 0 0 Z " fill="#010101" transform="translate(494.62586975097656,46.87974548339844)"/>
<path d="M0 0 C1.75539345 0.00333092 1.75539345 0.00333092 3.54624939 0.00672913 C4.51207191 0.00651009 4.51207191 0.00651009 5.49740601 0.00628662 C7.63473327 0.00698567 9.77197438 0.01477761 11.9092865 0.02259827 C13.3875931 0.02446248 14.86590032 0.02588637 16.34420776 0.02688599 C20.24211827 0.03071093 24.13999174 0.040541 28.03788757 0.05158997 C32.01259358 0.0618046 35.98730554 0.06638372 39.96202087 0.07142639 C47.76607425 0.0821633 55.57009707 0.09923942 63.37413025 0.12025452 C63.40300537 3.76607139 63.4208861 7.41185915 63.43663025 11.05775452 C63.44500916 12.09867249 63.45338806 13.13959045 63.46202087 14.21205139 C63.46524353 15.20140686 63.46846619 16.19076233 63.4717865 17.21009827 C63.47702332 18.12654114 63.48226013 19.04298401 63.48765564 19.98719788 C63.37413025 22.12025452 63.37413025 22.12025452 62.37413025 23.12025452 C59.27161824 23.20899586 56.19144905 23.23543907 53.088974 23.21791077 C52.15815506 23.21649582 51.22733612 23.21508087 50.26831055 23.21362305 C47.28271834 23.20800624 44.29719995 23.19545091 41.31163025 23.18275452 C39.29275112 23.17774168 37.27387082 23.1731784 35.25498962 23.16908264 C30.29465154 23.15888038 25.33447395 23.13930833 20.37413025 23.12025452 C20.37413025 29.72025452 20.37413025 36.32025452 20.37413025 43.12025452 C22.96127869 43.10865295 25.54842712 43.09705139 28.213974 43.08509827 C30.70933408 43.0773079 33.20469282 43.07123102 35.70005798 43.06532288 C37.43932193 43.06028247 39.17858161 43.05345021 40.91783142 43.04481506 C43.41238962 43.0327366 45.90689198 43.02702343 48.401474 43.02259827 C49.18376877 43.01743698 49.96606354 43.0122757 50.77206421 43.00695801 C52.63980139 43.00676226 54.50742229 43.05825757 56.37413025 43.12025452 C58.7434959 45.48962016 57.60746062 51.37593876 57.62413025 54.55775452 C57.64475525 55.53808655 57.66538025 56.51841858 57.68663025 57.52845764 C57.69436462 58.9332135 57.69436462 58.9332135 57.70225525 60.36634827 C57.7162738 61.66076843 57.7162738 61.66076843 57.73057556 62.9813385 C57.61294861 63.68718079 57.49532166 64.39302307 57.37413025 65.12025452 C53.64665447 67.60523837 50.93272834 67.28644572 46.6436615 67.09681702 C45.89324081 67.07179108 45.14282013 67.04676514 44.36965942 67.02098083 C41.97485111 66.93886386 39.58087786 66.84224399 37.18663025 66.74525452 C35.56231531 66.68700635 33.93796618 66.62970324 32.31358337 66.57337952 C28.3331075 66.43506968 24.3540904 66.27716291 20.37413025 66.12025452 C20.37413025 73.38025452 20.37413025 80.64025452 20.37413025 88.12025452 C34.89413025 88.12025452 49.41413025 88.12025452 64.37413025 88.12025452 C65.25307154 92.51496096 65.57138875 96.28859797 65.62413025 100.74525452 C65.6499115 102.05752014 65.67569275 103.36978577 65.70225525 104.72181702 C65.37413025 108.12025452 65.37413025 108.12025452 64.2401123 109.81037903 C61.53557787 111.70889855 59.47485709 111.48735067 56.19029236 111.47669983 C54.91564621 111.47970093 53.64100006 111.48270203 52.32772827 111.48579407 C50.93563941 111.47378887 49.54355461 111.46130591 48.151474 111.44837952 C46.72565917 111.44532161 45.29984135 111.44344573 43.87402344 111.44270325 C40.88720756 111.4381016 37.90066151 111.42368042 34.91392517 111.40150452 C31.08146019 111.37319659 27.24920751 111.36229028 23.41664791 111.35782242 C20.47331613 111.35367003 17.53002743 111.34385449 14.58671761 111.33194733 C13.17329313 111.32624247 11.75986451 111.32148447 10.34643364 111.31768036 C8.37378846 111.31082168 6.4011744 111.29629251 4.42857361 111.28138733 C2.74337868 111.27114532 2.74337868 111.27114532 1.0241394 111.26069641 C-1.62586975 111.12025452 -1.62586975 111.12025452 -3.62586975 110.12025452 C-3.64920005 95.9256941 -3.66678315 81.73113665 -3.67768192 67.53656101 C-3.68291147 60.94620666 -3.69001042 54.35586515 -3.7013092 47.76551819 C-3.71213553 41.41133434 -3.71814604 35.05716287 -3.72074699 28.7029705 C-3.7226017 26.27275841 -3.72622318 23.84254702 -3.73159981 21.41234016 C-3.73880686 18.0214247 -3.73986083 14.63056111 -3.73939514 11.23963928 C-3.74299042 10.22400406 -3.74658569 9.20836884 -3.75028992 8.16195679 C-3.74891525 7.24343933 -3.74754059 6.32492188 -3.74612427 5.37857056 C-3.74704606 4.57568887 -3.74796785 3.77280718 -3.74891758 2.94559574 C-3.54960033 -0.0111569 -2.97599667 0.13628895 0 0 Z " fill="#010101" transform="translate(749.6258697509766,46.87974548339844)"/>
<path d="M0 0 C1.23460464 -0.00945648 2.46920929 -0.01891296 3.7412262 -0.02865601 C5.08912476 -0.02328689 6.43702041 -0.01713409 7.78491211 -0.01025391 C9.16589003 -0.01227466 10.54686692 -0.01518612 11.92784119 -0.01895142 C14.82048717 -0.02337327 17.7128551 -0.01694755 20.60546875 -0.00292969 C24.31705077 0.0141786 28.02798279 0.00431046 31.73954105 -0.01364708 C34.59025493 -0.02447527 37.44081404 -0.02104341 40.29153252 -0.0132637 C41.66030389 -0.01125983 43.02908924 -0.01372755 44.39784431 -0.02070236 C46.30819564 -0.02830182 48.21859613 -0.01466952 50.12890625 0 C51.21683975 0.00238678 52.30477325 0.00477356 53.42567444 0.00723267 C54.27512131 0.13294647 55.12456818 0.25866028 55.99975586 0.38818359 C58.03291376 3.43792044 58.25460666 4.07775227 58.26538086 7.51318359 C58.26924805 8.69654297 58.26924805 8.69654297 58.27319336 9.90380859 C58.26545898 10.72365234 58.25772461 11.54349609 58.24975586 12.38818359 C58.26135742 13.61794922 58.26135742 13.61794922 58.27319336 14.87255859 C58.27061523 15.66146484 58.26803711 16.45037109 58.26538086 17.26318359 C58.263125 17.98248047 58.26086914 18.70177734 58.25854492 19.44287109 C57.99975586 21.38818359 57.99975586 21.38818359 55.99975586 24.38818359 C52.94900502 24.6546706 50.10349407 24.73575505 47.05444336 24.68115234 C46.16943146 24.6769075 45.28441956 24.67266266 44.37258911 24.66828918 C41.53967141 24.65146619 38.70745934 24.61380784 35.87475586 24.57568359 C33.95679737 24.56064142 32.03882775 24.5469522 30.12084961 24.53466797 C25.41332634 24.50409964 20.70733295 24.44538638 15.99975586 24.38818359 C15.99975586 30.98818359 15.99975586 37.58818359 15.99975586 44.38818359 C18.96975586 43.89318359 18.96975586 43.89318359 21.99975586 43.38818359 C24.21195447 43.29927965 26.42639763 43.25758318 28.64038086 43.25537109 C29.87530273 43.25408203 31.11022461 43.25279297 32.38256836 43.25146484 C34.29682617 43.25726563 34.29682617 43.25726563 36.24975586 43.26318359 C37.54139648 43.25931641 38.83303711 43.25544922 40.16381836 43.25146484 C41.39358398 43.25275391 42.62334961 43.25404297 43.89038086 43.25537109 C45.01476562 43.25649902 46.13915039 43.25762695 47.29760742 43.25878906 C49.99975586 43.38818359 49.99975586 43.38818359 51.99975586 44.38818359 C52.028634 47.867333 52.04651273 51.3464519 52.06225586 54.82568359 C52.07063477 55.81890625 52.07901367 56.81212891 52.08764648 57.83544922 C52.09086914 58.7796875 52.0940918 59.72392578 52.09741211 60.69677734 C52.10264893 61.57132568 52.10788574 62.44587402 52.11328125 63.34692383 C51.99975586 65.38818359 51.99975586 65.38818359 50.99975586 66.38818359 C48.40616264 66.47669889 45.83935895 66.50344304 43.24584961 66.48583984 C42.47040298 66.4844249 41.69495636 66.48300995 40.89601135 66.48155212 C38.40972092 66.47593705 35.92351926 66.46338206 33.43725586 66.45068359 C31.75561653 66.44567053 30.0739758 66.44110729 28.39233398 66.43701172 C24.26141256 66.42681191 20.13068404 66.40723964 15.99975586 66.38818359 C15.99975586 73.64818359 15.99975586 80.90818359 15.99975586 88.38818359 C19.0200293 88.37658203 22.04030273 88.36498047 25.15209961 88.35302734 C28.06445206 88.34523751 30.97680336 88.33916033 33.88916016 88.33325195 C35.91943884 88.32821081 37.94971388 88.32137803 39.97998047 88.31274414 C42.89152933 88.30066892 45.80303036 88.29495325 48.71459961 88.29052734 C49.62813705 88.28536606 50.5416745 88.28020477 51.4828949 88.27488708 C53.65551013 88.27469191 55.82802882 88.32606555 57.99975586 88.38818359 C58.99975586 89.38818359 58.99975586 89.38818359 59.11328125 91.42944336 C59.10542603 92.74126587 59.10542603 92.74126587 59.09741211 94.07958984 C59.09257813 95.49594727 59.09257813 95.49594727 59.08764648 96.94091797 C59.07507813 98.43075195 59.07507813 98.43075195 59.06225586 99.95068359 C59.05774414 100.94777344 59.05323242 101.94486328 59.04858398 102.97216797 C59.03675593 105.44423208 59.02027435 107.91617877 58.99975586 110.38818359 C50.42897988 110.43446786 41.85825589 110.47003279 33.28738594 110.49180794 C29.30783813 110.50225746 25.32837565 110.51643781 21.34887695 110.5390625 C17.510417 110.56074945 13.67203927 110.57274341 9.8335228 110.57793808 C8.36705099 110.58164132 6.90058381 110.58887259 5.43414688 110.59964371 C3.3844648 110.61410378 1.33512504 110.61616388 -0.71459961 110.61523438 C-1.8826413 110.6196756 -3.05068298 110.62411682 -4.25411987 110.62869263 C-7.00024414 110.38818359 -7.00024414 110.38818359 -9.00024414 108.38818359 C-9.25471973 106.51064396 -9.25471973 106.51064396 -9.26094055 104.18165588 C-9.26802536 103.29975586 -9.27511017 102.41785583 -9.28240967 101.50923157 C-9.27993225 100.53930771 -9.27745483 99.56938385 -9.27490234 98.57006836 C-9.28001328 97.55047028 -9.28512421 96.53087219 -9.29039001 95.4803772 C-9.30433498 92.09672235 -9.30332555 88.71327007 -9.30102539 85.32958984 C-9.30490963 82.98550846 -9.30924373 80.64142778 -9.31401062 78.29734802 C-9.3214834 73.37862875 -9.3211739 68.45998124 -9.31591797 63.54125977 C-9.31012208 57.22801038 -9.32705234 50.91505425 -9.35026264 44.60185337 C-9.36497169 39.75923435 -9.36587554 34.9166864 -9.36275291 30.074049 C-9.36326755 27.74596513 -9.36853188 25.41787744 -9.37856483 23.08981514 C-9.39085698 19.83824561 -9.38418081 16.58725318 -9.37255859 13.33569336 C-9.38020233 12.36779373 -9.38784607 11.3998941 -9.39572144 10.40266418 C-9.38870712 9.51794434 -9.38169281 8.63322449 -9.37446594 7.72169495 C-9.37463368 6.95275186 -9.37480143 6.18380877 -9.37497425 5.39156437 C-8.39351483 0.14448953 -4.65266245 0.01019986 0 0 Z " fill="#020202" transform="translate(776.000244140625,187.61181640625)"/>
<path d="M0 0 C0.85851562 -0.00773438 1.71703125 -0.01546875 2.6015625 -0.0234375 C3.4265625 -0.02085937 4.2515625 -0.01828125 5.1015625 -0.015625 C5.85002441 -0.01336914 6.59848633 -0.01111328 7.36962891 -0.00878906 C9.375 0.25 9.375 0.25 12.375 2.25 C13.18891907 4.00183105 13.18891907 4.00183105 13.8137207 6.13867188 C14.05439774 6.9413147 14.29507477 7.74395752 14.54304504 8.57092285 C14.91812447 9.88159729 14.91812447 9.88159729 15.30078125 11.21875 C15.57085495 12.12765991 15.84092865 13.03656982 16.1191864 13.97302246 C16.98568225 16.89573205 17.837211 19.82253859 18.6875 22.75 C19.80391148 26.55347175 20.92645941 30.3551099 22.05078125 34.15625 C22.32607666 35.0905484 22.60137207 36.0248468 22.88500977 36.98745728 C24.91948332 43.84589335 27.10481214 50.64281575 29.41706848 57.41247559 C31.31194935 62.96607221 32.94616995 68.55974701 34.375 74.25 C36.04107501 71.14121894 37.16124506 68.03516869 38.21484375 64.671875 C38.55580078 63.59292969 38.89675781 62.51398438 39.24804688 61.40234375 C39.59931641 60.27957031 39.95058594 59.15679687 40.3125 58 C44.22661911 45.52419919 44.22661911 45.52419919 45.82421875 41.46484375 C47.32150447 37.58921815 48.49558708 33.62412853 49.6796875 29.64453125 C50.10281437 28.23501097 50.52599227 26.825506 50.94921875 25.41601562 C51.60408728 23.23271051 52.25407321 21.04848299 52.89013672 18.85961914 C53.51366644 16.72074497 54.15735684 14.58880459 54.8046875 12.45703125 C55.17835449 11.1935083 55.55202148 9.92998535 55.93701172 8.62817383 C57.55035153 4.83805787 59.16488028 2.81221391 62.375 0.25 C64.56323242 -0.34936523 64.56323242 -0.34936523 66.73046875 -0.30859375 C67.51744141 -0.30150391 68.30441406 -0.29441406 69.11523438 -0.28710938 C69.92283203 -0.25423828 70.73042969 -0.22136719 71.5625 -0.1875 C72.79129883 -0.17879883 72.79129883 -0.17879883 74.04492188 -0.16992188 C80.07924107 -0.04575893 80.07924107 -0.04575893 82.375 2.25 C82.58562677 8.28796737 80.70062781 14.23106986 78.86328125 19.9140625 C78.48721992 21.10677261 78.48721992 21.10677261 78.1035614 22.32357788 C77.57380248 23.99711003 77.03995569 25.6693532 76.50219727 27.34033203 C75.69722418 29.84474634 74.90717754 32.35349337 74.11914062 34.86328125 C71.78124981 42.24238164 69.34380199 49.51538961 66.3984375 56.67578125 C62.61794363 65.87582959 59.68776365 75.33520169 56.6875 84.8125 C55.56425224 88.35730314 54.43433986 91.89988892 53.30078125 95.44140625 C53.0507283 96.23833389 52.80067535 97.03526154 52.54304504 97.8563385 C51.15410366 102.1958904 49.65557274 106.27762606 47.375 110.25 C44.32581794 111.77459103 41.15449808 111.39622866 37.8125 111.375 C37.09320312 111.37306641 36.37390625 111.37113281 35.6328125 111.36914062 C30.48375457 111.32739151 25.4772464 110.97889234 20.375 110.25 C18.36423173 105.1736342 16.64611531 100.03607901 15.03515625 94.8203125 C14.82539154 94.14119812 14.61562683 93.46208374 14.39950562 92.76239014 C13.52444243 89.92155869 12.65274492 87.0797159 11.78442383 84.23681641 C11.14248325 82.13850781 10.49532251 80.04185976 9.84765625 77.9453125 C9.46875244 76.70797363 9.08984863 75.47063477 8.69946289 74.19580078 C7.74353218 71.22238081 6.62518373 68.34587433 5.44335938 65.45507812 C3.28575099 60.14181405 1.52231343 54.74352441 -0.19140625 49.2734375 C-0.51157211 48.26334625 -0.83173798 47.253255 -1.16160583 46.21255493 C-2.17379184 43.0178144 -3.18102817 39.82154487 -4.1875 36.625 C-5.19812638 33.42150507 -6.20988092 30.21837926 -7.22410583 27.01602173 C-7.85187276 25.03330693 -8.47753753 23.04992486 -9.10072327 21.06576538 C-10.41199571 16.9192925 -11.76253449 12.82169547 -13.33959961 8.76806641 C-14.625 5.25 -14.625 5.25 -14.625 2.25 C-9.82783916 -0.23741673 -5.26593469 -0.04787213 0 0 Z " fill="#020202" transform="translate(674.625,187.75)"/>
<path d="M0 0 C10.41342925 -0.02312359 20.82685244 -0.04091517 31.24030209 -0.05181217 C36.07516827 -0.05704097 40.91001694 -0.06413854 45.74487305 -0.07543945 C50.4067712 -0.08626847 55.06865246 -0.09227686 59.73056221 -0.09487724 C61.51324288 -0.09673147 63.29592259 -0.10035203 65.07859612 -0.10573006 C67.5666596 -0.11294069 70.05465243 -0.11399093 72.54272461 -0.11352539 C73.28718842 -0.11712067 74.03165222 -0.12071594 74.79867554 -0.12442017 C79.88594784 -0.11405216 79.88594784 -0.11405216 81 1 C81.08685603 2.56172745 81.10702219 4.12729344 81.09765625 5.69140625 C81.09282227 7.10776367 81.09282227 7.10776367 81.08789062 8.55273438 C81.07532227 10.04256836 81.07532227 10.04256836 81.0625 11.5625 C81.05798828 12.55958984 81.05347656 13.55667969 81.04882812 14.58398438 C81.03700007 17.05604849 81.02051849 19.52799518 81 22 C77.8815675 23.0394775 75.72524414 23.11494838 72.45703125 23.09765625 C71.38388672 23.09443359 70.31074219 23.09121094 69.20507812 23.08789062 C68.08552734 23.07951172 66.96597656 23.07113281 65.8125 23.0625 C64.68134766 23.05798828 63.55019531 23.05347656 62.38476562 23.04882812 C59.58979073 23.03703498 56.7949218 23.0205765 54 23 C53.98969254 24.08772202 53.97938507 25.17544403 53.96876526 26.29612732 C53.8712064 36.52359431 53.76848941 46.75099806 53.66066074 56.97836208 C53.60538625 62.23693637 53.55195916 67.49551618 53.50268555 72.75415039 C53.45510858 77.82458064 53.40276846 82.89494097 53.34705925 87.96528816 C53.32660538 89.90424939 53.30789743 91.84322982 53.29092598 93.78222466 C53.26694883 96.48826954 53.23688555 99.19418099 53.20532227 101.90014648 C53.1995668 102.71006546 53.19381134 103.51998444 53.18788147 104.35444641 C53.11405216 109.88594784 53.11405216 109.88594784 52 111 C50.30441274 111.09932153 48.60474253 111.13080007 46.90625 111.1328125 C45.87628906 111.13410156 44.84632813 111.13539063 43.78515625 111.13671875 C42.15900391 111.13091797 42.15900391 111.13091797 40.5 111.125 C39.41589844 111.12886719 38.33179688 111.13273437 37.21484375 111.13671875 C36.18488281 111.13542969 35.15492188 111.13414062 34.09375 111.1328125 C33.14177734 111.13168457 32.18980469 111.13055664 31.20898438 111.12939453 C29 111 29 111 28 110 C27.90483789 107.2611158 27.87445406 104.54752059 27.88647461 101.80834961 C27.88632858 100.94988937 27.88618256 100.09142914 27.8860321 99.20695496 C27.88673153 96.35539262 27.8945253 93.50389475 27.90234375 90.65234375 C27.90420782 88.68079158 27.90563178 86.70923895 27.90663147 84.73768616 C27.91045749 79.53773733 27.92028848 74.33781625 27.93133545 69.13787842 C27.94154778 63.83606339 27.94612871 58.5342439 27.95117188 53.23242188 C27.96191067 42.82160237 27.97898809 32.41080349 28 22 C27.01 22.33 26.02 22.66 25 23 C23.16593006 23.09388227 21.32865748 23.13070611 19.4921875 23.1328125 C18.42355469 23.13410156 17.35492187 23.13539062 16.25390625 23.13671875 C15.13886719 23.13285156 14.02382813 23.12898438 12.875 23.125 C11.75222656 23.12886719 10.62945313 23.13273437 9.47265625 23.13671875 C7.87357422 23.13478516 7.87357422 23.13478516 6.2421875 23.1328125 C5.2610498 23.13168457 4.27991211 23.13055664 3.26904297 23.12939453 C1 23 1 23 0 22 C-0.08700342 20.36527118 -0.10701063 18.72685945 -0.09765625 17.08984375 C-0.09443359 16.10048828 -0.09121094 15.11113281 -0.08789062 14.09179688 C-0.07951172 13.05087891 -0.07113281 12.00996094 -0.0625 10.9375 C-0.05798828 9.89271484 -0.05347656 8.84792969 -0.04882812 7.77148438 C-0.03699913 5.1809334 -0.02051689 2.59049441 0 0 Z " fill="#030303" transform="translate(568,47)"/>
<path d="M0 0 C1.09289589 -0.00503792 1.09289589 -0.00503792 2.20787048 -0.01017761 C4.6223215 -0.01969625 7.03670325 -0.02163105 9.45117188 -0.02270508 C11.12504099 -0.02591657 12.79890981 -0.02928056 14.47277832 -0.03279114 C17.98332368 -0.03878437 21.49384441 -0.04063079 25.00439453 -0.04003906 C29.51063662 -0.03993733 34.01672154 -0.05360053 38.52292633 -0.07081127 C41.98008963 -0.08190871 45.43721463 -0.08395898 48.89439392 -0.08342934 C50.55623416 -0.08461244 52.21807529 -0.08905262 53.87989807 -0.0967617 C56.19999333 -0.10651807 58.51974338 -0.10370123 60.83984375 -0.09765625 C61.5308165 -0.10327576 62.22178925 -0.10889526 62.93370056 -0.11468506 C67.69160466 -0.08305354 67.69160466 -0.08305354 69.91992188 2.14526367 C70.17871094 4.17651367 70.17871094 4.17651367 70.18554688 6.64526367 C70.18941406 7.97557617 70.18941406 7.97557617 70.19335938 9.33276367 C70.185625 10.26088867 70.17789063 11.18901367 70.16992188 12.14526367 C70.18152344 13.53745117 70.18152344 13.53745117 70.19335938 14.95776367 C70.19078125 15.84463867 70.18820312 16.73151367 70.18554688 17.64526367 C70.18329102 18.45995117 70.18103516 19.27463867 70.17871094 20.11401367 C69.91992188 22.14526367 69.91992188 22.14526367 67.91992188 24.14526367 C65.30615234 24.37231445 65.30615234 24.37231445 62.03710938 24.34057617 C60.87050781 24.33413086 59.70390625 24.32768555 58.50195312 24.32104492 C57.27863281 24.30428711 56.0553125 24.2875293 54.79492188 24.27026367 C53.56386719 24.26124023 52.3328125 24.2522168 51.06445312 24.24291992 C48.01608373 24.21928915 44.96809805 24.18634421 41.91992188 24.14526367 C41.92214249 25.20792953 41.9243631 26.2705954 41.926651 27.36546326 C41.9468819 37.35741258 41.96189376 47.34935778 41.97173405 57.3413229 C41.97696301 62.47885933 41.98406089 67.6163793 41.99536133 72.75390625 C42.00618975 77.70757777 42.01219861 82.66123341 42.01479912 87.61491585 C42.01665345 89.50923984 42.02027421 91.40356291 42.02565193 93.29788017 C42.03286177 95.94160753 42.03391284 98.58526838 42.03344727 101.22900391 C42.03704254 102.02022141 42.04063782 102.8114389 42.04434204 103.62663269 C42.03397404 109.03121151 42.03397404 109.03121151 40.91992188 110.14526367 C37.28093012 110.39682636 33.62908515 110.33048593 29.98242188 110.33276367 C28.95439453 110.34500977 27.92636719 110.35725586 26.8671875 110.36987305 C25.88556641 110.37180664 24.90394531 110.37374023 23.89257812 110.37573242 C22.53531616 110.38189575 22.53531616 110.38189575 21.15063477 110.38818359 C18.91992188 110.14526367 18.91992188 110.14526367 16.91992188 108.14526367 C16.73192897 105.4646294 16.66810197 102.88816909 16.69287109 100.20727539 C16.69257904 99.38768341 16.69228699 98.56809143 16.69198608 97.72366333 C16.69338243 95.00731925 16.70895787 92.2912475 16.72460938 89.57495117 C16.72833842 87.6945104 16.7311859 85.81406768 16.73318481 83.93362427 C16.7408298 78.9786037 16.76048569 74.02369993 16.78259277 69.06872559 C16.8030326 64.01482727 16.81218254 58.96091013 16.82226562 53.90698242 C16.84373078 43.98635812 16.87787713 34.0658206 16.91992188 24.14526367 C16.16783447 24.15050049 15.41574707 24.1557373 14.64086914 24.16113281 C11.25472845 24.18183594 7.86860103 24.19490244 4.48242188 24.20776367 C2.70641602 24.22033203 2.70641602 24.22033203 0.89453125 24.2331543 C-0.23017578 24.23637695 -1.35488281 24.23959961 -2.51367188 24.24291992 C-4.07686157 24.25077515 -4.07686157 24.25077515 -5.67163086 24.25878906 C-8.08007812 24.14526367 -8.08007812 24.14526367 -9.08007812 23.14526367 C-9.16708155 21.51053485 -9.18708875 19.87212312 -9.17773438 18.23510742 C-9.17451172 17.24575195 -9.17128906 16.25639648 -9.16796875 15.23706055 C-9.15958984 14.19614258 -9.15121094 13.15522461 -9.14257812 12.08276367 C-9.13806641 11.03797852 -9.13355469 9.99319336 -9.12890625 8.91674805 C-9.11707725 6.32619707 -9.10059502 3.73575809 -9.08007812 1.14526367 C-6.15299883 -0.31827598 -3.20842934 -0.0021043 0 0 Z " fill="#010101" transform="translate(406.080078125,187.854736328125)"/>
<path d="M0 0 C2.53792221 -0.29191833 4.8319129 -0.38891878 7.37133789 -0.35644531 C8.13080215 -0.35848969 8.89026642 -0.36053406 9.67274475 -0.36264038 C12.18962474 -0.36565495 14.70585386 -0.34715304 17.22265625 -0.328125 C18.96617979 -0.32506872 20.70970576 -0.3231916 22.45323181 -0.32244873 C26.10929692 -0.31784158 29.76514227 -0.30339898 33.42114258 -0.28125 C38.11802089 -0.25294635 42.81472607 -0.24203695 47.51168156 -0.2375679 C51.11207324 -0.23342011 54.71242958 -0.22360836 58.31280327 -0.21169281 C60.04523878 -0.20597808 61.77767771 -0.20122338 63.51011848 -0.19742584 C65.92615929 -0.19058497 68.34206016 -0.17696362 70.75805664 -0.16113281 C71.48067688 -0.16001495 72.20329712 -0.15889709 72.94781494 -0.15774536 C77.88531256 -0.11468744 77.88531256 -0.11468744 79 1 C79.08685603 2.56172745 79.10702219 4.12729344 79.09765625 5.69140625 C79.09282227 7.10776367 79.09282227 7.10776367 79.08789062 8.55273438 C79.07532227 10.04256836 79.07532227 10.04256836 79.0625 11.5625 C79.05798828 12.55958984 79.05347656 13.55667969 79.04882812 14.58398438 C79.03700007 17.05604849 79.02051849 19.52799518 79 22 C70.13997743 24.95334086 60.33928382 23 51 23 C51 51.38 51 79.76 51 109 C44.24553749 111.2514875 44.24553749 111.2514875 40.73046875 111.01171875 C39.98732422 110.96466797 39.24417969 110.91761719 38.47851562 110.86914062 C37.72248047 110.80919922 36.96644531 110.74925781 36.1875 110.6875 C35.41212891 110.63916016 34.63675781 110.59082031 33.83789062 110.54101562 C28.14773261 110.14773261 28.14773261 110.14773261 27 109 C26.90485408 106.29161914 26.87445068 103.60881487 26.88647461 100.90014648 C26.88632858 100.05143982 26.88618256 99.20273315 26.8860321 98.32830811 C26.88673152 95.50921109 26.89452522 92.69017929 26.90234375 89.87109375 C26.90420783 87.92196183 26.90563178 85.97282945 26.90663147 84.0236969 C26.91045745 78.88293168 26.92028841 73.74219453 26.93133545 68.60144043 C26.94154785 63.35994852 26.94612872 58.1184521 26.95117188 52.87695312 C26.96191061 42.58462306 26.97898799 32.29231386 27 22 C25.89860184 22.16167664 24.79720367 22.32335327 23.66242981 22.4899292 C18.98028787 23.14201648 14.40727585 23.22253949 9.6875 23.25 C8.32915039 23.2809375 8.32915039 23.2809375 6.94335938 23.3125 C6.07904297 23.31765625 5.21472656 23.3228125 4.32421875 23.328125 C3.54135498 23.3374707 2.75849121 23.34681641 1.9519043 23.35644531 C0.98571167 23.18000488 0.98571167 23.18000488 0 23 C-2.56628339 19.15057491 -2.29464462 15.95702113 -2.25 11.5 C-2.25773438 10.72785156 -2.26546875 9.95570312 -2.2734375 9.16015625 C-2.25993153 5.26368532 -2.20675169 3.31012753 0 0 Z " fill="#000000" transform="translate(656,47)"/>
<path d="M0 0 C0.88365234 -0.00257813 1.76730469 -0.00515625 2.67773438 -0.0078125 C3.59748047 -0.00007812 4.51722656 0.00765625 5.46484375 0.015625 C6.38845703 0.00789062 7.31207031 0.00015625 8.26367188 -0.0078125 C9.14603516 -0.00523437 10.02839844 -0.00265625 10.9375 0 C12.14998413 0.00338379 12.14998413 0.00338379 13.38696289 0.00683594 C15.40234375 0.265625 15.40234375 0.265625 17.40234375 2.265625 C17.59037328 4.97646158 17.65414548 7.58429774 17.62939453 10.29541016 C17.62968658 11.12475571 17.62997864 11.95410126 17.63027954 12.80857849 C17.62888314 15.55738692 17.61330743 18.30592627 17.59765625 21.0546875 C17.59392722 22.95754854 17.59107973 24.8604115 17.58908081 26.76327515 C17.58143567 31.77747883 17.56177964 36.79156709 17.53967285 41.8057251 C17.51564125 47.81874201 17.50643764 53.83179746 17.49476624 59.84484863 C17.47535573 68.98518776 17.43703931 78.12527351 17.40234375 87.265625 C30.60234375 87.265625 43.80234375 87.265625 57.40234375 87.265625 C58.68429907 91.11149095 58.5864992 94.75885097 58.58984375 98.765625 C58.60208984 99.53777344 58.61433594 100.30992187 58.62695312 101.10546875 C58.63711366 105.0138898 58.61806423 106.94204428 56.40234375 110.265625 C53.77684021 110.63311768 53.77684021 110.63311768 50.40795898 110.62207031 C49.15003036 110.62507141 47.89210175 110.62807251 46.59605408 110.63116455 C45.21767774 110.61915974 43.8393055 110.6066768 42.4609375 110.59375 C41.05371807 110.5906933 39.64649562 110.5888165 38.23927307 110.58807373 C35.28936191 110.58346818 32.33972336 110.56903189 29.38989258 110.546875 C25.60101899 110.51856639 21.81236007 110.5076613 18.02339077 110.5031929 C15.11784195 110.49904444 12.21233691 110.48923222 9.30681038 110.47731781 C7.90930598 110.47160489 6.51179734 110.46684958 5.11428642 110.46305084 C3.16527675 110.45620723 1.21629855 110.4416806 -0.73266602 110.42675781 C-1.84360123 110.41992981 -2.95453644 110.41310181 -4.09913635 110.40606689 C-6.59765625 110.265625 -6.59765625 110.265625 -7.59765625 109.265625 C-7.69955611 107.87893231 -7.7328329 106.48711663 -7.73809814 105.09669495 C-7.74380829 104.19789612 -7.74951843 103.29909729 -7.75540161 102.37306213 C-7.75651947 101.37927048 -7.75763733 100.38547882 -7.75878906 99.36157227 C-7.76375397 98.32100677 -7.76871887 97.28044128 -7.77383423 96.20834351 C-7.78849728 92.74956615 -7.79526429 89.29083464 -7.80078125 85.83203125 C-7.80652873 83.43928525 -7.81228651 81.04653928 -7.8180542 78.65379333 C-7.82857562 73.63076563 -7.83441099 68.60775398 -7.83789062 63.5847168 C-7.84338156 57.1334785 -7.86741774 50.68245061 -7.89586258 44.23127842 C-7.91444129 39.28748444 -7.91969198 34.34374165 -7.9212265 29.3999157 C-7.92426372 27.02075994 -7.9323279 24.64160531 -7.94541168 22.2624836 C-7.96237469 18.94118127 -7.96061592 15.62039975 -7.95410156 12.29907227 C-7.96792374 10.81142113 -7.96792374 10.81142113 -7.98202515 9.29371643 C-7.97645599 8.39209778 -7.97088684 7.49047913 -7.96514893 6.5615387 C-7.96661549 5.77562631 -7.96808205 4.98971392 -7.96959305 4.179986 C-7.8468539 3.54824687 -7.72411476 2.91650774 -7.59765625 2.265625 C-4.43300485 0.1558574 -3.62371852 0.01009895 0 0 Z " fill="#030303" transform="translate(856.59765625,187.734375)"/>
<path d="M0 0 C4.14581887 -0.02886751 8.29161216 -0.04675327 12.4375 -0.0625 C14.21350586 -0.07506836 14.21350586 -0.07506836 16.02539062 -0.08789062 C17.15009766 -0.09111328 18.27480469 -0.09433594 19.43359375 -0.09765625 C20.47572021 -0.10289307 21.51784668 -0.10812988 22.59155273 -0.11352539 C25 0 25 0 26 1 C26.09509559 3.61688441 26.12556 6.207289 26.11352539 8.82446289 C26.11367142 9.64390884 26.11381744 10.4633548 26.1139679 11.30763245 C26.11326852 14.02933353 26.10547501 16.75096705 26.09765625 19.47265625 C26.09579216 21.35452741 26.09436821 23.23639906 26.09336853 25.11827087 C26.08954267 30.08148529 26.07971181 35.04467064 26.06866455 40.00787354 C26.0584519 45.06839606 26.05387122 50.12892327 26.04882812 55.18945312 C26.0380896 65.12631488 26.02101236 75.06315503 26 85 C25.34 85 24.68 85 24 85 C23.20732673 57.32600525 22.87009112 29.68502679 23 2 C15.41 2 7.82 2 0 2 C0 1.34 0 0.68 0 0 Z " fill="#171717" transform="translate(400,209)"/>
<path d="M0 0 C0.33 1.32 0.66 2.64 1 4 C1.66 3.67 2.32 3.34 3 3 C4.97106545 2.9086334 6.94527916 2.88248032 8.91845703 2.88647461 C10.78016037 2.88658791 10.78016037 2.88658791 12.67947388 2.88670349 C14.03892049 2.8918105 15.39836669 2.8970265 16.7578125 2.90234375 C18.14500884 2.90420858 19.53220584 2.90563218 20.91940308 2.90663147 C24.57234512 2.91045152 28.22524748 2.92027745 31.87817383 2.93133545 C35.60497501 2.94156056 39.33178259 2.94613145 43.05859375 2.95117188 C50.37241394 2.96190017 57.68620141 2.97897046 65 3 C65.495 4.485 65.495 4.485 66 6 C57.68998125 6.02314315 49.37997592 6.04092518 41.06993294 6.05181217 C37.2114867 6.05703667 33.35306247 6.06412649 29.49462891 6.07543945 C25.7728847 6.08628368 22.0511617 6.09228011 18.32940292 6.09487724 C16.90759828 6.09672871 15.48579483 6.10034403 14.06399918 6.10573006 C12.0766945 6.11296072 10.08936861 6.11340823 8.10205078 6.11352539 C6.40328293 6.11685631 6.40328293 6.11685631 4.67019653 6.12025452 C2 6 2 6 0 5 C0 3.35 0 1.7 0 0 Z " fill="#1F1F1F" transform="translate(746,152)"/>
<path d="M0 0 C18.15 0 36.3 0 55 0 C55 0.66 55 1.32 55 2 C52.02118573 2.99293809 50.08512761 3.12119785 46.9777832 3.11352539 C45.95695145 3.11344986 44.93611969 3.11337433 43.88435364 3.11329651 C42.78427475 3.10813522 41.68419586 3.10297394 40.55078125 3.09765625 C39.4230278 3.0962413 38.29527435 3.09482635 37.13334656 3.09336853 C33.52637088 3.0877647 29.91945696 3.07521153 26.3125 3.0625 C23.86914152 3.05748549 21.42578207 3.0529225 18.98242188 3.04882812 C12.98826013 3.03779403 6.99413448 3.02105215 1 3 C0.67 2.01 0.34 1.02 0 0 Z " fill="#262626" transform="translate(491,155)"/>
<path d="M0 0 C0.82062424 0.00007553 1.64124847 0.00015106 2.48674011 0.00022888 C3.80875175 0.00797081 3.80875175 0.00797081 5.1574707 0.01586914 C6.5161602 0.01799156 6.5161602 0.01799156 7.90229797 0.02015686 C10.79598286 0.02575538 13.68959044 0.03830758 16.58325195 0.05102539 C18.54483938 0.05604058 20.50642801 0.06060346 22.46801758 0.06469727 C27.27729217 0.07572432 32.08650895 0.09298792 36.89575195 0.11352539 C36.89575195 1.10352539 36.89575195 2.09352539 36.89575195 3.11352539 C22.70575195 3.11352539 8.51575195 3.11352539 -6.10424805 3.11352539 C-6.43424805 2.45352539 -6.76424805 1.79352539 -7.10424805 1.11352539 C-4.37318294 0.20317036 -2.80531566 -0.00863174 0 0 Z " fill="#252525" transform="translate(405.104248046875,154.886474609375)"/>
<path d="M0 0 C2 2 2 2 2.1953125 5.6953125 C2.182009 7.17200108 2.15814835 8.64862358 2.125 10.125 C2.11597656 10.87910156 2.10695313 11.63320313 2.09765625 12.41015625 C2.0740687 14.27357254 2.03819719 16.13682593 2 18 C3.20398438 17.96519531 4.40796875 17.93039063 5.6484375 17.89453125 C7.22394442 17.8663972 8.79946638 17.83909663 10.375 17.8125 C11.1690625 17.78736328 11.963125 17.76222656 12.78125 17.73632812 C14.85586148 17.70995595 16.93100865 17.84513538 19 18 C19.66 18.99 20.32 19.98 21 21 C17.70849875 21.08685287 14.4172904 21.14033895 11.125 21.1875 C10.18785156 21.21263672 9.25070312 21.23777344 8.28515625 21.26367188 C7.38925781 21.27333984 6.49335937 21.28300781 5.5703125 21.29296875 C4.32918701 21.31653442 4.32918701 21.31653442 3.06298828 21.34057617 C2.38220215 21.22818604 1.70141602 21.1157959 1 21 C-1.58837761 17.11743359 -1.25793118 13.86776783 -1.1875 9.375 C-1.18685547 8.58609375 -1.18621094 7.7971875 -1.18554688 6.984375 C-1.1403612 1.1403612 -1.1403612 1.1403612 0 0 Z " fill="#1D1D1D" transform="translate(655,49)"/>
<path d="M0 0 C0.66 0 1.32 0 2 0 C2.33 6.27 2.66 12.54 3 19 C-0.17787541 20.0592918 -2.42588943 20.11458939 -5.76171875 20.09765625 C-6.87998047 20.09443359 -7.99824219 20.09121094 -9.15039062 20.08789062 C-10.31763672 20.07951172 -11.48488281 20.07113281 -12.6875 20.0625 C-13.86634766 20.05798828 -15.04519531 20.05347656 -16.25976562 20.04882812 C-19.17322789 20.03703273 -22.08658863 20.0205727 -25 20 C-25 19.34 -25 18.68 -25 18 C-16.62756186 16.89680815 -8.43088048 16.92335563 0 17 C0 11.39 0 5.78 0 0 Z " fill="#3C3C3C" transform="translate(732,50)"/>
<path d="M0 0 C7.75 -0.125 7.75 -0.125 10 1 C10 1.66 10 2.32 10 3 C7.36 3 4.72 3 2 3 C2.00523682 3.55985596 2.01047363 4.11971191 2.01586914 4.6965332 C2.03666691 7.23517737 2.04966904 9.77380359 2.0625 12.3125 C2.07087891 13.19357422 2.07925781 14.07464844 2.08789062 14.98242188 C2.09111328 15.82998047 2.09433594 16.67753906 2.09765625 17.55078125 C2.10289307 18.33106689 2.10812988 19.11135254 2.11352539 19.9152832 C2 22 2 22 1 25 C0.34 25 -0.32 25 -1 25 C-1.0289337 21.20834926 -1.04677601 17.41672673 -1.0625 13.625 C-1.07087891 12.54476562 -1.07925781 11.46453125 -1.08789062 10.3515625 C-1.09111328 9.3203125 -1.09433594 8.2890625 -1.09765625 7.2265625 C-1.10289307 6.27346191 -1.10812988 5.32036133 -1.11352539 4.33837891 C-1 2 -1 2 0 0 Z " fill="#151515" transform="translate(514,67)"/>
<path d="M0 0 C10.89 0 21.78 0 33 0 C33 0.66 33 1.32 33 2 C28.82309536 4.08845232 23.33903827 3.18492478 18.75 3.1875 C17.05037109 3.20586914 17.05037109 3.20586914 15.31640625 3.22460938 C14.21683594 3.22654297 13.11726562 3.22847656 11.984375 3.23046875 C10.47955566 3.23663208 10.47955566 3.23663208 8.94433594 3.24291992 C5.70715318 2.97583892 3.03189623 2.13794767 0 1 C0 0.67 0 0.34 0 0 Z " fill="#272727" transform="translate(519,111)"/>
<path d="M0 0 C0.66 0 1.32 0 2 0 C2.33 7.59 2.66 15.18 3 23 C1.68 23.33 0.36 23.66 -1 24 C-1.02887236 20.18751574 -1.04675492 16.3750593 -1.0625 12.5625 C-1.07087891 11.47388672 -1.07925781 10.38527344 -1.08789062 9.26367188 C-1.09111328 8.22919922 -1.09433594 7.19472656 -1.09765625 6.12890625 C-1.10289307 5.17056885 -1.10812988 4.21223145 -1.11352539 3.22485352 C-1 1 -1 1 0 0 Z " fill="#0D0D0D" transform="translate(514,113)"/>
<path d="M0 0 C4.62 0 9.24 0 14 0 C14 0.66 14 1.32 14 2 C11.09560239 2.96813254 9.2718176 3.12144834 6.25317383 3.11352539 C5.29240433 3.11344986 4.33163483 3.11337433 3.3417511 3.11329651 C2.30729355 3.10813522 1.272836 3.10297394 0.20703125 3.09765625 C-1.38471672 3.09553383 -1.38471672 3.09553383 -3.00862122 3.09336853 C-6.40160935 3.08776606 -9.79453177 3.07521314 -13.1875 3.0625 C-15.48632717 3.05748532 -17.78515538 3.05292236 -20.08398438 3.04882812 C-25.72267872 3.03779583 -31.36133466 3.0210553 -37 3 C-37 2.67 -37 2.34 -37 2 C-24.79 1.67 -12.58 1.34 0 1 C0 0.67 0 0.34 0 0 Z " fill="#1B1B1B" transform="translate(532,155)"/>
<path d="M0 0 C0.86753906 -0.020625 1.73507812 -0.04125 2.62890625 -0.0625 C3.46292969 -0.06765625 4.29695312 -0.0728125 5.15625 -0.078125 C5.91744141 -0.0874707 6.67863281 -0.09681641 7.46289062 -0.10644531 C9.5 0.25 9.5 0.25 12.5 3.25 C4.25 3.25 -4 3.25 -12.5 3.25 C-12.5 2.59 -12.5 1.93 -12.5 1.25 C-8.32412922 -0.14195693 -4.37401815 0.02599714 0 0 Z " fill="#121212" transform="translate(674.5,187.75)"/>
<path d="M0 0 C3.12492251 -0.05791844 6.24970766 -0.09356746 9.375 -0.125 C10.26445313 -0.14175781 11.15390625 -0.15851563 12.0703125 -0.17578125 C12.92109375 -0.18222656 13.771875 -0.18867188 14.6484375 -0.1953125 C15.82672119 -0.21102295 15.82672119 -0.21102295 17.02880859 -0.22705078 C19 0 19 0 21 2 C20 3 20 3 17.95874023 3.11352539 C17.08419189 3.10828857 16.20964355 3.10305176 15.30859375 3.09765625 C14.36435547 3.09443359 13.42011719 3.09121094 12.44726562 3.08789062 C11.45404297 3.07951172 10.46082031 3.07113281 9.4375 3.0625 C8.44041016 3.05798828 7.44332031 3.05347656 6.41601562 3.04882812 C3.94395151 3.03700007 1.47200482 3.02051849 -1 3 C-0.67 2.01 -0.34 1.02 0 0 Z " fill="#222222" transform="translate(831,155)"/>
<path d="M0 0 C1.32 0.33 2.64 0.66 4 1 C4 6.94 4 12.88 4 19 C3.01 19 2.02 19 1 19 C0.67 12.73 0.34 6.46 0 0 Z " fill="#1B1B1B" transform="translate(472,189)"/>
<path d="M0 0 C0 0.99 0 1.98 0 3 C-2.54173977 3.02716824 -5.08318415 3.04691969 -7.625 3.0625 C-8.69427734 3.07506836 -8.69427734 3.07506836 -9.78515625 3.08789062 C-13.97344438 3.10710296 -17.8728462 2.8267327 -22 2 C-22 1.67 -22 1.34 -22 1 C-14.66236293 -0.17402193 -7.41834582 -0.09377123 0 0 Z " fill="#414141" transform="translate(720,296)"/>
<path d="M0 0 C-1.1809082 1.49536133 -1.1809082 1.49536133 -3 3 C-5.36010742 3.2487793 -5.36010742 3.2487793 -8.10546875 3.07421875 C-9.08837891 3.01943359 -10.07128906 2.96464844 -11.08398438 2.90820312 C-12.10814453 2.83537109 -13.13230469 2.76253906 -14.1875 2.6875 C-15.22326172 2.62626953 -16.25902344 2.56503906 -17.32617188 2.50195312 C-19.88531957 2.34864013 -22.44267045 2.1807893 -25 2 C-25 1.67 -25 1.34 -25 1 C-16.64736824 0.04541351 -8.40215965 -0.11039334 0 0 Z " fill="#323232" transform="translate(807,111)"/>
<path d="M0 0 C2.20991419 3.31487129 3.08491625 6.17877112 4.1875 10 C4.55230469 11.2375 4.91710937 12.475 5.29296875 13.75 C6 17 6 17 5 20 C4.70996094 19.18595703 4.70996094 19.18595703 4.4140625 18.35546875 C4.15367187 17.64003906 3.89328125 16.92460937 3.625 16.1875 C3.24214844 15.12595703 3.24214844 15.12595703 2.8515625 14.04296875 C1.9734231 11.75226641 1.9734231 11.75226641 0 9 C-0.66 9.66 -1.32 10.32 -2 11 C-1.34 7.37 -0.68 3.74 0 0 Z " fill="#0A0A0A" transform="translate(623,213)"/>
<path d="M0 0 C0.66 0 1.32 0 2 0 C2.05420701 2.56278699 2.09377007 5.12441483 2.125 7.6875 C2.15013672 8.7693457 2.15013672 8.7693457 2.17578125 9.87304688 C2.21391569 14.04876781 1.8789919 17.2494138 0 21 C-0.97608217 18.07175348 -1.08226668 16.04386724 -1 13 C-0.34 13 0.32 13 1 13 C0.67 8.71 0.34 4.42 0 0 Z " fill="#212121" transform="translate(906,76)"/>
<path d="M0 0 C3.3 0 6.6 0 10 0 C9.67 0.99 9.34 1.98 9 3 C5.7 3 2.4 3 -1 3 C-0.67 2.01 -0.34 1.02 0 0 Z " fill="#131313" transform="translate(588,296)"/>
<path d="M0 0 C4.29 0 8.58 0 13 0 C13 0.66 13 1.32 13 2 C11.20909747 2.19466332 9.41723495 2.38051213 7.625 2.5625 C6.12839844 2.71912109 6.12839844 2.71912109 4.6015625 2.87890625 C2 3 2 3 0 2 C0 1.34 0 0.68 0 0 Z " fill="#1F1F1F" transform="translate(86,116)"/>
<path d="M0 0 C-1.65 0.66 -3.3 1.32 -5 2 C-5 2.66 -5 3.32 -5 4 C-10.41176471 8 -10.41176471 8 -13 8 C-13 7.01 -13 6.02 -13 5 C-12.01 5 -11.02 5 -10 5 C-10 4.34 -10 3.68 -10 3 C-3.375 -1.125 -3.375 -1.125 0 0 Z " fill="#242424" transform="translate(238,225)"/>
<path d="M0 0 C0.33 0 0.66 0 1 0 C1.19594676 3.14536768 1.3803401 6.29130614 1.5625 9.4375 C1.61857422 10.33533203 1.67464844 11.23316406 1.73242188 12.15820312 C1.78076172 13.01220703 1.82910156 13.86621094 1.87890625 14.74609375 C1.9260376 15.53685303 1.97316895 16.3276123 2.02172852 17.14233398 C2 19 2 19 1 20 C-0.99958364 20.04080783 -3.00045254 20.04254356 -5 20 C-3.68 19.34 -2.36 18.68 -1 18 C-0.505 9.09 -0.505 9.09 0 0 Z " fill="#151515" transform="translate(556,50)"/>
<path d="M0 0 C2.97 0 5.94 0 9 0 C8.67 0.99 8.34 1.98 8 3 C5.36 3 2.72 3 0 3 C0 2.01 0 1.02 0 0 Z " fill="#151515" transform="translate(56,255)"/>
<path d="M0 0 C0.99 0.33 1.98 0.66 3 1 C2.67 1.66 2.34 2.32 2 3 C-2.28769786 4.29930238 -6.56510345 4.07516774 -11 4 C-10.67 3.34 -10.34 2.68 -10 2 C-7.96875 1.62109375 -7.96875 1.62109375 -5.5 1.4375 C-2.45018475 1.4207737 -2.45018475 1.4207737 0 0 Z " fill="#676767" transform="translate(704,154)"/>
<path d="M0 0 C0.33 0 0.66 0 1 0 C1 3.3 1 6.6 1 10 C0.34 10 -0.32 10 -1 10 C-2.38125018 7.23749964 -2.19079306 5.05268901 -2 2 C-1.34 1.34 -0.68 0.68 0 0 Z " fill="#0F0F0F" transform="translate(200,124)"/>
<path d="M0 0 C2.00720923 0.28674418 4.0085944 0.61866701 6 1 C3.14415227 2.90389849 1.0688238 3.69462177 -2.1875 4.625 C-3.08855469 4.88539062 -3.98960938 5.14578125 -4.91796875 5.4140625 C-5.94857422 5.70410156 -5.94857422 5.70410156 -7 6 C-7 5.34 -7 4.68 -7 4 C-6.34 4 -5.68 4 -5 4 C-4.67 3.34 -4.34 2.68 -4 2 C-3.34 2.33 -2.68 2.66 -2 3 C-1.67 2.34 -1.34 1.68 -1 1 C-0.67 0.67 -0.34 0.34 0 0 Z " fill="#282828" transform="translate(131,40)"/>
<path d="M0 0 C-6.27692308 4.06153846 -6.27692308 4.06153846 -9.9375 3.75 C-10.618125 3.5025 -11.29875 3.255 -12 3 C-11.67 2.01 -11.34 1.02 -11 0 C-11 0.66 -11 1.32 -11 2 C-9.9275 1.484375 -8.855 0.96875 -7.75 0.4375 C-4.80304013 -0.84170773 -3.06798204 -1.3499121 0 0 Z " fill="#222222" transform="translate(271,225)"/>
<path d="M0 0 C0.33 0.99 0.66 1.98 1 3 C-5.15234375 2.4140625 -5.15234375 2.4140625 -7 2 C-7.33 1.34 -7.66 0.68 -8 0 C-5.13822943 -1.43088528 -3.06624227 -0.59991697 0 0 Z " fill="#1D1D1D" transform="translate(535,210)"/>
<path d="M0 0 C1.32 0.33 2.64 0.66 4 1 C1.31158141 3.25245881 -0.64641875 4.88213958 -4 6 C-3.67 4.68 -3.34 3.36 -3 2 C-2.01 2 -1.02 2 0 2 C0 1.34 0 0.68 0 0 Z " fill="#202020" transform="translate(187,214)"/>
<path d="M0 0 C-0.625 1.9375 -0.625 1.9375 -2 4 C-5.125 4.75 -5.125 4.75 -8 5 C-8 4.34 -8 3.68 -8 3 C-2.25 0 -2.25 0 0 0 Z " fill="#0A0A0A" transform="translate(464,149)"/>
<path d="M0 0 C0.66 0 1.32 0 2 0 C1.6875 3.375 1.6875 3.375 1 7 C0.01 7.66 -0.98 8.32 -2 9 C-1.34 6.03 -0.68 3.06 0 0 Z " fill="#0B0B0B" transform="translate(358,116)"/>
<path d="M0 0 C3.96 0 7.92 0 12 0 C12.33 1.32 12.66 2.64 13 4 C12.01 3.67 11.02 3.34 10 3 C10 2.34 10 1.68 10 1 C6.7 1 3.4 1 0 1 C0 0.67 0 0.34 0 0 Z " fill="#0B0B0B" transform="translate(512,260)"/>
<path d="M0 0 C3.33523252 1.38009621 5.18607951 2.84950652 7 6 C6.67 6.99 6.34 7.98 6 9 C5.67 8.01 5.34 7.02 5 6 C4.34 6 3.68 6 3 6 C3 5.01 3 4.02 3 3 C2.01 2.67 1.02 2.34 0 2 C0 1.34 0 0.68 0 0 Z " fill="#282828" transform="translate(230,205)"/>
<path d="M0 0 C1.45922693 0.11409593 2.91740598 0.24165544 4.375 0.375 C5.59316406 0.47941406 5.59316406 0.47941406 6.8359375 0.5859375 C9 1 9 1 11 3 C6.99799622 4.60080151 3.95443764 3.29279692 0 2 C0 1.34 0 0.68 0 0 Z " fill="#0D0D0D" transform="translate(239,176)"/>
<path d="M0 0 C-1.28519565 2.86697492 -2.57129254 4.97607712 -5 7 C-5.66 7 -6.32 7 -7 7 C-3.86206897 0 -3.86206897 0 0 0 Z " fill="#090909" transform="translate(127,127)"/>
<path d="M0 0 C2.31 0 4.62 0 7 0 C7.33 0.99 7.66 1.98 8 3 C5.03 2.67 2.06 2.34 -1 2 C-0.67 1.34 -0.34 0.68 0 0 Z " fill="#131313" transform="translate(635,274)"/>
<path d="M0 0 C0.99 0.33 1.98 0.66 3 1 C3.33 3.64 3.66 6.28 4 9 C3.34 8.67 2.68 8.34 2 8 C2 6.35 2 4.7 2 3 C1.34 3 0.68 3 0 3 C0 2.01 0 1.02 0 0 Z " fill="#090909" transform="translate(687,199)"/>
<path d="M0 0 C3.26460973 1.80412643 4.88929795 2.83394693 7 6 C4.0625 5.25 4.0625 5.25 1 4 C0.125 1.875 0.125 1.875 0 0 Z " fill="#0F0F0F" transform="translate(185,199)"/>
<path d="M0 0 C-1.04874998 2.62187494 -1.64931313 3.79371361 -4.125 5.25 C-4.74375 5.4975 -5.3625 5.745 -6 6 C-5.6875 4.125 -5.6875 4.125 -5 2 C-2 0 -2 0 0 0 Z " fill="#212121" transform="translate(150,91)"/>
</svg>
