<svg xmlns="http://www.w3.org/2000/svg" viewBox="0 0 48 48" width="48px" height="48px">
  <path fill="#4285F4" d="M24 9.5c3.54 0 6.71 1.22 9.21 3.6l6.85-6.85C35.9 2.46 30.47 0 24 0 14.62 0 6.51 5.38 2.56 13.22l7.98 6.19C12.54 13.43 17.74 9.5 24 9.5z"/>
  <path fill="#34A853" d="M46.1 24.55c0-1.63-.15-3.2-.43-4.73H24v9.02h12.4c-.54 2.79-2.17 5.15-4.63 6.73l7.21 5.6C43.59 37.15 46.1 31.31 46.1 24.55z"/>
  <path fill="#FBBC05" d="M10.54 28.41a13.9 13.9 0 010-8.82l-7.98-6.19a23.97 23.97 0 000 21.2l7.98-6.19z"/>
  <path fill="#EA4335" d="M24 48c6.48 0 11.93-2.13 15.9-5.81l-7.21-5.6c-2.02 1.37-4.61 2.18-8.69 2.18-6.26 0-11.46-3.93-13.46-9.41l-7.98 6.19C6.51 42.62 14.62 48 24 48z"/>
</svg>
