<?xml version="1.0" encoding="iso-8859-1"?>
<!-- Uploaded to: SVG Repo, www.svgrepo.com, Generator: SVG Repo Mixer Tools -->
<svg fill="#000000" height="800px" width="800px" version="1.1" id="Layer_1" xmlns="http://www.w3.org/2000/svg" xmlns:xlink="http://www.w3.org/1999/xlink" 
	 viewBox="0 0 512 512" xml:space="preserve">
<g>
	<g>
		<path d="M140.807,285.277v155.464h0.001c0,8.114,6.578,14.692,14.692,14.692s14.692-6.578,14.692-14.692V285.277H140.807z"/>
	</g>
</g>
<g>
	<g>
		<path d="M341.383,285.277v155.464h0.001c0,8.114,6.578,14.692,14.692,14.692s14.692-6.578,14.692-14.692V285.277H341.383z"/>
	</g>
</g>
<g>
	<g>
		<path d="M194.778,285.278v177.219h-0.001c0,15.465,12.536,28.003,28.003,28.003c15.466,0,28.003-12.536,28.003-28.003V285.278
			H194.778z"/>
	</g>
</g>
<g>
	<g>
		<path d="M262.872,285.278v177.219c0,15.465,12.536,28.003,28.002,28.003c15.465,0,28.003-12.536,28.003-28.003V285.278H262.872z"
			/>
	</g>
</g>
<g>
	<g>
		<path d="M408.659,181.057c-3.276-6.928-31.089-65.768-34.49-72.96c-10.147-21.465-31.971-35.377-55.69-35.554
			c-9.778,24.841-33.951,42.066-61.658,42.066c-27.999,0-51.979-17.468-61.66-42.071c-23.834,0.061-45.799,14.004-55.989,35.559
			c-3.401,7.193-31.213,66.028-34.49,72.96c-7.323,15.492,4.031,33.309,21.096,33.309c0.019,0,0.039,0,0.059-0.001l89.752-0.224
			c12.884-0.032,23.308-10.503,23.277-23.394c-0.032-12.865-10.471-23.277-23.334-23.277c-0.019,0-0.04,0-0.06,0l-52.807,0.132
			c10.536-22.289,8.303-17.564,18.701-39.56c1.407-2.978,4.691-4.58,7.905-3.859c3.213,0.721,5.496,3.575,5.496,6.867v15.092
			c0.186,0,20.58-0.051,20.766-0.051c18.505,0,34.394,11.247,41.188,27.29c6.846-15.917,22.663-27.065,41.09-27.065h20.556v-15.219
			c0-3.344,2.319-6.241,5.581-6.973c3.263-0.732,6.597,0.896,8.027,3.919c10.496,22.206,8.211,17.37,18.744,39.653h-52.909
			c-12.888,0-23.335,10.448-23.335,23.335c0,12.731,10.231,23.211,23.129,23.325l89.958,0.01
			C404.658,214.365,415.972,196.527,408.659,181.057z"/>
	</g>
</g>
<g>
	<g>
		<path d="M487.14,235.666c-1.693,0-448.753,0-462.278,0c-7.816,0-14.151,6.336-14.151,14.151s6.336,14.151,14.151,14.151h15.233
			v226.313c0,11.995,9.724,21.718,21.718,21.718c11.995,0,21.718-9.724,21.718-21.718V263.969c15.488,0,330.212,0,346.217,0v226.313
			c0,11.995,9.724,21.718,21.718,21.718c11.995,0,21.718-9.724,21.718-21.718V263.969h13.955c7.816,0,14.151-6.336,14.151-14.151
			C501.291,242.002,494.955,235.666,487.14,235.666z"/>
	</g>
</g>
<g>
	<g>
		<circle cx="256.823" cy="48.358" r="48.358"/>
	</g>
</g>
</svg>